<?xml version="1.0" encoding="utf-8" standalone="no"?>
<!DOCTYPE svg PUBLIC "-//W3C//DTD SVG 1.1//EN"
  "http://www.w3.org/Graphics/SVG/1.1/DTD/svg11.dtd">
<!-- Created with matplotlib (https://matplotlib.org/) -->
<svg height="187.2pt" version="1.1" viewBox="0 0 518.4 187.2" width="518.4pt" xmlns="http://www.w3.org/2000/svg" xmlns:xlink="http://www.w3.org/1999/xlink">
 <defs>
  <style type="text/css">
*{stroke-linecap:butt;stroke-linejoin:round;}
  </style>
 </defs>
 <g id="figure_1">
  <g id="patch_1">
   <path d="M 0 187.2 
L 518.4 187.2 
L 518.4 0 
L 0 0 
z
" style="fill:#ffffff;"/>
  </g>
  <g id="axes_1">
   <g id="patch_2">
    <path d="M 37.578189 162.572984 
L 515.39976 162.572984 
L 515.39976 13.15133 
L 37.578189 13.15133 
z
" style="fill:#ffffff;"/>
   </g>
   <g id="PolyCollection_1">
    <path clip-path="url(#pc950959e58)" d="M -285.274223 162.556474 
L -285.274223 162.564729 
L 37.578189 161.846547 
L 50.492286 161.945606 
L 63.406382 161.722722 
L 76.320479 161.788762 
L 89.234575 161.797017 
L 102.148672 161.177894 
L 115.062768 160.921989 
L 127.976865 160.55877 
L 140.890961 160.046962 
L 153.805058 160.187297 
L 166.719154 159.559918 
L 179.633251 159.584683 
L 192.547347 158.767441 
L 205.461444 158.206103 
L 218.37554 157.686039 
L 231.289637 156.992621 
L 244.203733 155.902964 
L 257.11783 155.481961 
L 270.031926 153.764926 
L 282.946023 152.782584 
L 295.860119 151.717692 
L 308.774216 150.479446 
L 321.688312 148.638586 
L 334.602409 146.046524 
L 347.516505 145.509951 
L 360.430602 143.074733 
L 373.344698 139.1206 
L 386.258795 135.826865 
L 399.172891 132.590915 
L 412.086988 131.377433 
L 425.001084 126.465723 
L 437.915181 123.642522 
L 450.829277 119.985568 
L 463.743374 117.40176 
L 476.65747 112.993604 
L 476.65747 38.054939 
L 476.65747 38.054939 
L 463.743374 48.258088 
L 450.829277 56.471789 
L 437.915181 62.068662 
L 425.001084 71.248194 
L 412.086988 81.847582 
L 399.172891 86.784057 
L 386.258795 96.169964 
L 373.344698 103.764541 
L 360.430602 111.053684 
L 347.516505 119.548054 
L 334.602409 121.694347 
L 321.688312 126.886727 
L 308.774216 132.813799 
L 295.860119 135.026132 
L 282.946023 138.551007 
L 270.031926 141.299913 
L 257.11783 143.94976 
L 244.203733 145.881425 
L 231.289637 147.326045 
L 218.37554 149.018315 
L 205.461444 150.487701 
L 192.547347 152.064401 
L 179.633251 152.972448 
L 166.719154 154.128145 
L 153.805058 155.572765 
L 140.890961 155.498471 
L 127.976865 156.629402 
L 115.062768 157.24027 
L 102.148672 158.750931 
L 89.234575 159.733273 
L 76.320479 160.005687 
L 63.406382 160.121257 
L 50.492286 160.715615 
L 37.578189 160.327631 
L -285.274223 162.556474 
z
" style="fill:#1f77b4;fill-opacity:0.3;stroke:#1f77b4;stroke-opacity:0.3;"/>
   </g>
   <g id="matplotlib.axis_1">
    <g id="xtick_1">
     <g id="line2d_1">
      <defs>
       <path d="M 0 0 
L 0 3.5 
" id="mc6715833e0" style="stroke:#000000;stroke-width:0.8;"/>
      </defs>
      <g>
       <use style="stroke:#000000;stroke-width:0.8;" x="37.578189" xlink:href="#mc6715833e0" y="162.572984"/>
      </g>
     </g>
     <g id="text_1">
      <!-- $1985$ -->
      <defs>
       <path d="M 26.59375 63.40625 
C 26.59375 65.5 26.5 65.5 25.09375 65.5 
C 21.203125 61.1875 15.296875 59.796875 9.703125 59.796875 
C 9.40625 59.796875 8.90625 59.796875 8.796875 59.5 
C 8.703125 59.296875 8.703125 59.09375 8.703125 57 
C 11.796875 57 17 57.59375 21 59.984375 
L 21 7.203125 
C 21 3.6875 20.796875 2.5 12.203125 2.5 
L 9.203125 2.5 
L 9.203125 0 
C 14 0 19 0 23.796875 0 
C 28.59375 0 33.59375 0 38.40625 0 
L 38.40625 2.5 
L 35.40625 2.5 
C 26.796875 2.5 26.59375 3.59375 26.59375 7.15625 
z
" id="CMR17-49"/>
       <path d="M 35.203125 29.125 
C 35.203125 7.25 26.09375 0.484375 18.59375 0.484375 
C 16.296875 0.484375 10.703125 0.484375 8.40625 4.59375 
C 11 4.1875 12.90625 5.578125 12.90625 8.09375 
C 12.90625 10.8125 10.703125 11.703125 9.296875 11.703125 
C 8.40625 11.703125 5.703125 11.296875 5.703125 7.90625 
C 5.703125 1.109375 11.59375 -2 18.796875 -2 
C 30.296875 -2 42 10.53125 42 32.390625 
C 42 59.640625 30.796875 65.296875 23.203125 65.296875 
C 13.296875 65.296875 3.796875 56.6875 3.796875 43.40625 
C 3.796875 31.109375 11.90625 22 22.09375 22 
C 30.5 22 34.203125 29.734375 35.203125 33 
z
M 22.296875 23.59375 
C 19.59375 23.59375 15.796875 24.09375 12.703125 30.03125 
C 10.59375 33.890625 10.59375 38.453125 10.59375 43.296875 
C 10.59375 49.15625 10.59375 53.203125 13.40625 57.5625 
C 14.796875 59.640625 17.40625 63 23.203125 63 
C 35 63 35 45.078125 35 41.125 
C 35 34.09375 31.796875 23.59375 22.296875 23.59375 
z
" id="CMR17-57"/>
       <path d="M 27.203125 35.375 
C 33.5 38.546875 39.90625 43.328125 39.90625 50.984375 
C 39.90625 60.015625 31.09375 65.296875 23 65.296875 
C 13.90625 65.296875 5.90625 58.734375 5.90625 49.6875 
C 5.90625 47.203125 6.5 42.921875 10.40625 39.140625 
C 11.40625 38.15625 15.59375 35.171875 18.296875 33.28125 
C 13.796875 30.984375 3.296875 25.53125 3.296875 14.59375 
C 3.296875 4.359375 13.09375 -2 22.796875 -2 
C 33.5 -2 42.5 5.65625 42.5 15.78125 
C 42.5 24.84375 36.40625 29.015625 32.40625 31.703125 
z
M 14.09375 44.09375 
C 13.296875 44.59375 9.296875 47.671875 9.296875 52.359375 
C 9.296875 58.421875 15.59375 63 22.796875 63 
C 30.703125 63 36.5 57.4375 36.5 50.96875 
C 36.5 41.703125 26.09375 36.421875 25.59375 36.421875 
C 25.5 36.421875 25.40625 36.421875 24.59375 37.03125 
z
M 32.5 23.734375 
C 34 22.640625 38.796875 19.375 38.796875 13.296875 
C 38.796875 5.953125 31.40625 0.390625 23 0.390625 
C 13.90625 0.390625 7 6.84375 7 14.6875 
C 7 22.546875 13.09375 29.09375 20 32.1875 
z
" id="CMR17-56"/>
       <path d="M 11.40625 57.6875 
C 12.40625 57.28125 16.5 56 20.703125 56 
C 30 56 35.09375 61.109375 38 64.0625 
C 38 64.953125 38 65.5 37.40625 65.5 
C 37.296875 65.5 37.09375 65.5 36.296875 65.046875 
C 32.796875 63.40625 28.703125 62.078125 23.703125 62.078125 
C 20.703125 62.078125 16.203125 62.484375 11.296875 64.671875 
C 10.203125 65.171875 10 65.171875 9.90625 65.171875 
C 9.40625 65.171875 9.296875 65.0625 9.296875 63.078125 
L 9.296875 34.421875 
C 9.296875 32.640625 9.296875 32.140625 10.296875 32.140625 
C 10.796875 32.140625 11 32.34375 11.5 33.03125 
C 14.703125 37.515625 19.09375 39.40625 24.09375 39.40625 
C 27.59375 39.40625 35.09375 37.21875 35.09375 20.140625 
C 35.09375 16.953125 35.09375 11.171875 32.09375 6.578125 
C 29.59375 2.484375 25.703125 0.390625 21.40625 0.390625 
C 14.796875 0.390625 8.09375 5 6.296875 12.71875 
C 6.703125 12.609375 7.5 12.421875 7.90625 12.421875 
C 9.203125 12.421875 11.703125 13.125 11.703125 16.21875 
C 11.703125 18.90625 9.796875 20 7.90625 20 
C 5.59375 20 4.09375 18.59375 4.09375 15.796875 
C 4.09375 7.09375 11 -2 21.59375 -2 
C 31.90625 -2 41.703125 6.875 41.703125 19.75 
C 41.703125 31.71875 33.90625 41 24.203125 41 
C 19.09375 41 14.796875 39.109375 11.40625 35.53125 
z
" id="CMR17-53"/>
      </defs>
      <g transform="translate(30.272365 173.724074)scale(0.06 -0.06)">
       <use transform="scale(0.996264)" xlink:href="#CMR17-49"/>
       <use transform="translate(45.690477 0)scale(0.996264)" xlink:href="#CMR17-57"/>
       <use transform="translate(91.380954 0)scale(0.996264)" xlink:href="#CMR17-56"/>
       <use transform="translate(137.071431 0)scale(0.996264)" xlink:href="#CMR17-53"/>
      </g>
     </g>
    </g>
    <g id="xtick_2">
     <g id="line2d_2">
      <g>
       <use style="stroke:#000000;stroke-width:0.8;" x="102.148672" xlink:href="#mc6715833e0" y="162.572984"/>
      </g>
     </g>
     <g id="text_2">
      <!-- $1990$ -->
      <defs>
       <path d="M 42 31.640625 
C 42 37.75 41.90625 48.125 37.703125 56.109375 
C 34 63.109375 28.09375 65.59375 22.90625 65.59375 
C 18.09375 65.59375 12 63.40625 8.203125 56.203125 
C 4.203125 48.71875 3.796875 39.4375 3.796875 31.640625 
C 3.796875 25.953125 3.90625 17.28125 7 9.671875 
C 11.296875 -0.609375 19 -2 22.90625 -2 
C 27.5 -2 34.5 -0.109375 38.59375 9.375 
C 41.59375 16.28125 42 24.359375 42 31.640625 
z
M 22.90625 -0.40625 
C 16.5 -0.40625 12.703125 5.078125 11.296875 12.6875 
C 10.203125 18.5625 10.203125 27.15625 10.203125 32.75 
C 10.203125 40.4375 10.203125 46.828125 11.5 52.921875 
C 13.40625 61.390625 19 64 22.90625 64 
C 27 64 32.296875 61.296875 34.203125 53.125 
C 35.5 47.4375 35.59375 40.734375 35.59375 32.75 
C 35.59375 26.25 35.59375 18.265625 34.40625 12.375 
C 32.296875 1.484375 26.40625 -0.40625 22.90625 -0.40625 
z
" id="CMR17-48"/>
      </defs>
      <g transform="translate(94.842847 173.724074)scale(0.06 -0.06)">
       <use transform="scale(0.996264)" xlink:href="#CMR17-49"/>
       <use transform="translate(45.690477 0)scale(0.996264)" xlink:href="#CMR17-57"/>
       <use transform="translate(91.380954 0)scale(0.996264)" xlink:href="#CMR17-57"/>
       <use transform="translate(137.071431 0)scale(0.996264)" xlink:href="#CMR17-48"/>
      </g>
     </g>
    </g>
    <g id="xtick_3">
     <g id="line2d_3">
      <g>
       <use style="stroke:#000000;stroke-width:0.8;" x="166.719154" xlink:href="#mc6715833e0" y="162.572984"/>
      </g>
     </g>
     <g id="text_3">
      <!-- $1995$ -->
      <g transform="translate(159.41333 173.724074)scale(0.06 -0.06)">
       <use transform="scale(0.996264)" xlink:href="#CMR17-49"/>
       <use transform="translate(45.690477 0)scale(0.996264)" xlink:href="#CMR17-57"/>
       <use transform="translate(91.380954 0)scale(0.996264)" xlink:href="#CMR17-57"/>
       <use transform="translate(137.071431 0)scale(0.996264)" xlink:href="#CMR17-53"/>
      </g>
     </g>
    </g>
    <g id="xtick_4">
     <g id="line2d_4">
      <g>
       <use style="stroke:#000000;stroke-width:0.8;" x="231.289637" xlink:href="#mc6715833e0" y="162.572984"/>
      </g>
     </g>
     <g id="text_4">
      <!-- $2000$ -->
      <defs>
       <path d="M 41.703125 15.453125 
L 39.90625 15.453125 
C 38.90625 8.375 38.09375 7.171875 37.703125 6.5625 
C 37.203125 5.765625 30 5.765625 28.59375 5.765625 
L 9.40625 5.765625 
C 13 9.671875 20 16.75 28.5 24.953125 
C 34.59375 30.734375 41.703125 37.53125 41.703125 47.421875 
C 41.703125 59.21875 32.296875 66 21.796875 66 
C 10.796875 66 4.09375 56.3125 4.09375 47.34375 
C 4.09375 43.4375 7 42.9375 8.203125 42.9375 
C 9.203125 42.9375 12.203125 43.546875 12.203125 47.03125 
C 12.203125 50.109375 9.59375 51 8.203125 51 
C 7.59375 51 7 50.90625 6.59375 50.703125 
C 8.5 59.21875 14.296875 63.40625 20.40625 63.40625 
C 29.09375 63.40625 34.796875 56.515625 34.796875 47.421875 
C 34.796875 38.734375 29.703125 31.25 24 24.75 
L 4.09375 2.28125 
L 4.09375 0 
L 39.296875 0 
z
" id="CMR17-50"/>
      </defs>
      <g transform="translate(223.983812 173.724074)scale(0.06 -0.06)">
       <use transform="scale(0.996264)" xlink:href="#CMR17-50"/>
       <use transform="translate(45.690477 0)scale(0.996264)" xlink:href="#CMR17-48"/>
       <use transform="translate(91.380954 0)scale(0.996264)" xlink:href="#CMR17-48"/>
       <use transform="translate(137.071431 0)scale(0.996264)" xlink:href="#CMR17-48"/>
      </g>
     </g>
    </g>
    <g id="xtick_5">
     <g id="line2d_5">
      <g>
       <use style="stroke:#000000;stroke-width:0.8;" x="295.860119" xlink:href="#mc6715833e0" y="162.572984"/>
      </g>
     </g>
     <g id="text_5">
      <!-- $2005$ -->
      <g transform="translate(288.554295 173.724074)scale(0.06 -0.06)">
       <use transform="scale(0.996264)" xlink:href="#CMR17-50"/>
       <use transform="translate(45.690477 0)scale(0.996264)" xlink:href="#CMR17-48"/>
       <use transform="translate(91.380954 0)scale(0.996264)" xlink:href="#CMR17-48"/>
       <use transform="translate(137.071431 0)scale(0.996264)" xlink:href="#CMR17-53"/>
      </g>
     </g>
    </g>
    <g id="xtick_6">
     <g id="line2d_6">
      <g>
       <use style="stroke:#000000;stroke-width:0.8;" x="360.430602" xlink:href="#mc6715833e0" y="162.572984"/>
      </g>
     </g>
     <g id="text_6">
      <!-- $2010$ -->
      <g transform="translate(353.124777 173.724074)scale(0.06 -0.06)">
       <use transform="scale(0.996264)" xlink:href="#CMR17-50"/>
       <use transform="translate(45.690477 0)scale(0.996264)" xlink:href="#CMR17-48"/>
       <use transform="translate(91.380954 0)scale(0.996264)" xlink:href="#CMR17-49"/>
       <use transform="translate(137.071431 0)scale(0.996264)" xlink:href="#CMR17-48"/>
      </g>
     </g>
    </g>
    <g id="xtick_7">
     <g id="line2d_7">
      <g>
       <use style="stroke:#000000;stroke-width:0.8;" x="425.001084" xlink:href="#mc6715833e0" y="162.572984"/>
      </g>
     </g>
     <g id="text_7">
      <!-- $2015$ -->
      <g transform="translate(417.69526 173.724074)scale(0.06 -0.06)">
       <use transform="scale(0.996264)" xlink:href="#CMR17-50"/>
       <use transform="translate(45.690477 0)scale(0.996264)" xlink:href="#CMR17-48"/>
       <use transform="translate(91.380954 0)scale(0.996264)" xlink:href="#CMR17-49"/>
       <use transform="translate(137.071431 0)scale(0.996264)" xlink:href="#CMR17-53"/>
      </g>
     </g>
    </g>
    <g id="xtick_8">
     <g id="line2d_8">
      <g>
       <use style="stroke:#000000;stroke-width:0.8;" x="489.571567" xlink:href="#mc6715833e0" y="162.572984"/>
      </g>
     </g>
     <g id="text_8">
      <!-- $2020$ -->
      <g transform="translate(482.265742 173.724074)scale(0.06 -0.06)">
       <use transform="scale(0.996264)" xlink:href="#CMR17-50"/>
       <use transform="translate(45.690477 0)scale(0.996264)" xlink:href="#CMR17-48"/>
       <use transform="translate(91.380954 0)scale(0.996264)" xlink:href="#CMR17-50"/>
       <use transform="translate(137.071431 0)scale(0.996264)" xlink:href="#CMR17-48"/>
      </g>
     </g>
    </g>
    <g id="text_9">
     <!-- Publication year -->
     <defs>
      <path d="M 32.90625 29 
C 44.90625 29 54.703125 38.328125 54.703125 49.34375 
C 54.703125 60.15625 45.296875 69.578125 32.296875 69.578125 
L 8.90625 69.578125 
L 8.90625 0 
L 17.296875 0 
L 17.296875 29 
z
M 30.09375 64 
C 41.703125 64 46.796875 56.671875 46.796875 49.328125 
C 46.796875 42.5 42.09375 34.78125 30.09375 34.78125 
L 17.09375 34.78125 
L 17.09375 64 
z
" id="CMSS17-80"/>
      <path d="M 40.90625 42.796875 
L 33.296875 42.796875 
L 33.296875 15.1875 
C 33.296875 7.78125 27.90625 4.78125 22.203125 4.78125 
C 15.59375 4.78125 15 6.984375 15 11.078125 
L 15 42.796875 
L 7.40625 42.796875 
L 7.40625 10.59375 
C 7.40625 2.796875 10.09375 -1 17 -1 
C 20.40625 -1 28.09375 -0.203125 33.5 4.78125 
L 33.5 0 
L 40.90625 0 
z
" id="CMSS17-117"/>
      <path d="M 14.90625 69 
L 7.5 69 
L 7.5 -0.203125 
L 15.09375 -0.203125 
L 15.09375 4.28125 
C 18.90625 0.59375 23.5 -1 27.59375 -1 
C 37.203125 -1 45 8.578125 45 21.125 
C 45 32.59375 39 43.0625 30.09375 43.0625 
C 23.796875 43.0625 18.203125 40.484375 14.90625 37.796875 
z
M 15.09375 31.96875 
C 17.296875 34.71875 20.40625 37 24.796875 37 
C 30.703125 37 37.40625 32.765625 37.40625 21.125 
C 37.40625 8.71875 29.40625 5.078125 23.90625 5.078125 
C 21.90625 5.078125 19.796875 5.5625 17.796875 7.25 
C 15.09375 9.609375 15.09375 11.078125 15.09375 12.453125 
z
" id="CMSS17-98"/>
      <path d="M 14.796875 69 
L 7.40625 69 
L 7.40625 0 
L 14.796875 0 
z
" id="CMSS17-108"/>
      <path d="M 15.296875 65.359375 
L 6.90625 65.359375 
L 6.90625 57 
L 15.296875 57 
z
M 14.796875 42.796875 
L 7.40625 42.796875 
L 7.40625 0 
L 14.796875 0 
z
" id="CMSS17-105"/>
      <path d="M 38.5 39.703125 
C 38.5 40.390625 33.90625 42.40625 32.703125 42.796875 
C 29.40625 44 25.203125 44 24.09375 44 
C 11.09375 44 3.296875 32.703125 3.296875 21.296875 
C 3.296875 9.296875 12 -1 23.703125 -1 
C 30.40625 -1 35.203125 1.1875 39.09375 3.78125 
L 38.5 10.375 
C 34.203125 7.078125 29.203125 5.265625 23.796875 5.265625 
C 16 5.265625 10.90625 12.09375 10.90625 21.390625 
C 10.90625 28.609375 14.203125 37.71875 24.203125 37.71875 
C 29.703125 37.71875 32.796875 36.609375 37.40625 33.515625 
z
" id="CMSS17-99"/>
      <path d="M 37.59375 27.984375 
C 37.59375 37.375 30.90625 43.875 21.90625 43.875 
C 17.5 43.875 12.703125 43.078125 7.203125 39.890625 
L 7.796875 33.359375 
C 10.296875 35.125 14.59375 38 21.796875 38 
C 26.90625 38 30 34.0625 30 27.84375 
L 30 24 
C 14 24 4 19.34375 4 11.34375 
C 4 7.203125 6.5 -1 14.796875 -1 
C 16.296875 -1 24.40625 -1 30.203125 3.390625 
L 30.203125 -0.296875 
L 37.59375 -0.296875 
z
M 30 12.75 
C 30 10.953125 30 8.5625 27 6.78125 
C 24.40625 5.078125 21.09375 5.078125 19.703125 5.078125 
C 14.703125 5.078125 11.296875 7.984375 11.296875 11.625 
C 11.296875 18.921875 26.90625 18.921875 30 18.921875 
z
" id="CMSS17-97"/>
      <path d="M 16.703125 37 
L 29.703125 37 
L 29.703125 42.765625 
L 16.703125 42.765625 
L 16.703125 55 
L 9.59375 55 
L 9.59375 42.765625 
L 1.703125 42.765625 
L 1.703125 37 
L 9.40625 37 
L 9.40625 11.703125 
C 9.40625 6 10.703125 -1 17.296875 -1 
C 22.296875 -1 26.90625 0.390625 31.296875 2.6875 
L 29.703125 8.5625 
C 27.296875 6.46875 24.40625 5.265625 21.296875 5.265625 
C 16.90625 5.265625 16.703125 10.875 16.703125 13.375 
z
" id="CMSS17-116"/>
      <path d="M 44.203125 21.1875 
C 44.203125 34 34.703125 44 23.5 44 
C 12 44 2.703125 33.703125 2.703125 21.1875 
C 2.703125 8.5 12.296875 -1 23.40625 -1 
C 34.796875 -1 44.203125 8.796875 44.203125 21.1875 
z
M 23.5 5.265625 
C 16.40625 5.265625 10.296875 11.078125 10.296875 22 
C 10.296875 33.609375 17.40625 37.921875 23.40625 37.921875 
C 29.90625 37.921875 36.59375 33.21875 36.59375 22 
C 36.59375 10.671875 30.09375 5.265625 23.5 5.265625 
z
" id="CMSS17-111"/>
      <path d="M 40.90625 29.328125 
C 40.90625 35.671875 39.40625 44 28.09375 44 
C 21.703125 44 17.5 40.71875 14.703125 37.328125 
L 14.703125 43.09375 
L 7.40625 43.09375 
L 7.40625 0 
L 15 0 
L 15 24.359375 
C 15 30.6875 17.40625 37.9375 24.203125 37.9375 
C 33 37.9375 33.296875 32 33.296875 28.578125 
L 33.296875 0 
L 40.90625 0 
z
" id="CMSS17-110"/>
      <path d="M 41.796875 43 
L 34 43 
C 25.5 20.21875 22.59375 10.96875 22.40625 5.984375 
L 22.296875 5.984375 
C 22 10.875 17.59375 22.8125 14.09375 31.359375 
L 9.40625 43 
L 1.296875 43 
L 19 0.203125 
C 17.90625 -2.78125 16.296875 -7.265625 15.796875 -8.265625 
C 13.59375 -13.828125 12.09375 -13.828125 10.5 -13.828125 
C 10.09375 -13.828125 6.90625 -13.828125 3.296875 -12.640625 
L 3.90625 -19.203125 
C 6.40625 -19.703125 8.90625 -20 10.703125 -20 
C 13.203125 -20 18.203125 -20 22.796875 -7.765625 
z
" id="CMSS17-121"/>
      <path d="M 39.09375 21.515625 
C 39.09375 24.84375 38.90625 31.296875 35.703125 36.640625 
C 32.203125 42.390625 26.5 44 22.203125 44 
C 11.796875 44 3 34.1875 3 21.484375 
C 3 9.09375 12.09375 -1 23.59375 -1 
C 28.09375 -1 33.59375 0.296875 38.59375 3.875 
C 38.59375 4.28125 38.40625 6.46875 38.296875 6.5625 
C 38.296875 6.765625 38 9.84375 38 10.25 
C 33.203125 6.359375 27.703125 5.078125 23.703125 5.078125 
C 17.296875 5.078125 10.40625 10.421875 10.09375 21.515625 
z
M 10.90625 27 
C 12.203125 32.5625 16.59375 37.828125 22.203125 37.828125 
C 23.703125 37.828125 30.703125 37.828125 32.5 27 
z
" id="CMSS17-101"/>
      <path d="M 14.90625 21.296875 
C 14.90625 30.703125 21.796875 37 30.59375 37 
L 30.59375 43.578125 
C 24.203125 43.578125 18.203125 40.390625 14.59375 35.203125 
L 14.59375 43.09375 
L 7.5 43.09375 
L 7.5 0 
L 14.90625 0 
z
" id="CMSS17-114"/>
     </defs>
     <g transform="translate(255.22992 183.037462)scale(0.06 -0.06)">
      <use transform="scale(0.996264)" xlink:href="#CMSS17-80"/>
      <use transform="translate(59.735586 0)scale(0.996264)" xlink:href="#CMSS17-117"/>
      <use transform="translate(107.940529 0)scale(0.996264)" xlink:href="#CMSS17-98"/>
      <use transform="translate(156.145473 0)scale(0.996264)" xlink:href="#CMSS17-108"/>
      <use transform="translate(178.326196 0)scale(0.996264)" xlink:href="#CMSS17-105"/>
      <use transform="translate(200.506919 0)scale(0.996264)" xlink:href="#CMSS17-99"/>
      <use transform="translate(242.145741 0)scale(0.996264)" xlink:href="#CMSS17-97"/>
      <use transform="translate(287.067661 0)scale(0.996264)" xlink:href="#CMSS17-116"/>
      <use transform="translate(320.899228 0)scale(0.996264)" xlink:href="#CMSS17-105"/>
      <use transform="translate(343.079951 0)scale(0.996264)" xlink:href="#CMSS17-111"/>
      <use transform="translate(389.923575 0)scale(0.996264)" xlink:href="#CMSS17-110"/>
      <use transform="translate(469.35763 0)scale(0.996264)" xlink:href="#CMSS17-121"/>
      <use transform="translate(509.755318 0)scale(0.996264)" xlink:href="#CMSS17-101"/>
      <use transform="translate(551.39414 0)scale(0.996264)" xlink:href="#CMSS17-97"/>
      <use transform="translate(593.713607 0)scale(0.996264)" xlink:href="#CMSS17-114"/>
     </g>
    </g>
   </g>
   <g id="matplotlib.axis_2">
    <g id="ytick_1">
     <g id="line2d_9">
      <defs>
       <path d="M 0 0 
L -3.5 0 
" id="m882f42a523" style="stroke:#000000;stroke-width:0.8;"/>
      </defs>
      <g>
       <use style="stroke:#000000;stroke-width:0.8;" x="37.578189" xlink:href="#m882f42a523" y="162.572984"/>
      </g>
     </g>
     <g id="text_10">
      <!-- $0$ -->
      <g transform="translate(26.925277 164.648529)scale(0.06 -0.06)">
       <use transform="scale(0.996264)" xlink:href="#CMR17-48"/>
      </g>
     </g>
    </g>
    <g id="ytick_2">
     <g id="line2d_10">
      <g>
       <use style="stroke:#000000;stroke-width:0.8;" x="37.578189" xlink:href="#m882f42a523" y="141.935547"/>
      </g>
     </g>
     <g id="text_11">
      <!-- $2500$ -->
      <g transform="translate(15.96654 144.011091)scale(0.06 -0.06)">
       <use transform="scale(0.996264)" xlink:href="#CMR17-50"/>
       <use transform="translate(45.690477 0)scale(0.996264)" xlink:href="#CMR17-53"/>
       <use transform="translate(91.380954 0)scale(0.996264)" xlink:href="#CMR17-48"/>
       <use transform="translate(137.071431 0)scale(0.996264)" xlink:href="#CMR17-48"/>
      </g>
     </g>
    </g>
    <g id="ytick_3">
     <g id="line2d_11">
      <g>
       <use style="stroke:#000000;stroke-width:0.8;" x="37.578189" xlink:href="#m882f42a523" y="121.298109"/>
      </g>
     </g>
     <g id="text_12">
      <!-- $5000$ -->
      <g transform="translate(15.96654 123.373654)scale(0.06 -0.06)">
       <use transform="scale(0.996264)" xlink:href="#CMR17-53"/>
       <use transform="translate(45.690477 0)scale(0.996264)" xlink:href="#CMR17-48"/>
       <use transform="translate(91.380954 0)scale(0.996264)" xlink:href="#CMR17-48"/>
       <use transform="translate(137.071431 0)scale(0.996264)" xlink:href="#CMR17-48"/>
      </g>
     </g>
    </g>
    <g id="ytick_4">
     <g id="line2d_12">
      <g>
       <use style="stroke:#000000;stroke-width:0.8;" x="37.578189" xlink:href="#m882f42a523" y="100.660671"/>
      </g>
     </g>
     <g id="text_13">
      <!-- $7500$ -->
      <defs>
       <path d="M 45.09375 61.578125 
L 45.09375 63.765625 
L 21.59375 63.765625 
C 9.90625 63.765625 9.703125 65.078125 9.296875 67 
L 7.5 67 
L 4.59375 48.34375 
L 6.40625 48.34375 
C 6.703125 50.234375 7.40625 55.3125 8.59375 57.203125 
C 9.203125 58 16.59375 58 18.296875 58 
L 40.296875 58 
L 29.203125 41.578125 
C 21.796875 30.53125 16.703125 15.609375 16.703125 2.578125 
C 16.703125 1.390625 16.703125 -2 20.296875 -2 
C 23.90625 -2 23.90625 1.390625 23.90625 2.671875 
L 23.90625 7.265625 
C 23.90625 23.5625 26.703125 34.3125 31.296875 41.1875 
z
" id="CMR17-55"/>
      </defs>
      <g transform="translate(15.96654 102.736216)scale(0.06 -0.06)">
       <use transform="scale(0.996264)" xlink:href="#CMR17-55"/>
       <use transform="translate(45.690477 0)scale(0.996264)" xlink:href="#CMR17-53"/>
       <use transform="translate(91.380954 0)scale(0.996264)" xlink:href="#CMR17-48"/>
       <use transform="translate(137.071431 0)scale(0.996264)" xlink:href="#CMR17-48"/>
      </g>
     </g>
    </g>
    <g id="ytick_5">
     <g id="line2d_13">
      <g>
       <use style="stroke:#000000;stroke-width:0.8;" x="37.578189" xlink:href="#m882f42a523" y="80.023233"/>
      </g>
     </g>
     <g id="text_14">
      <!-- $10000$ -->
      <g transform="translate(12.313628 82.098778)scale(0.06 -0.06)">
       <use transform="scale(0.996264)" xlink:href="#CMR17-49"/>
       <use transform="translate(45.690477 0)scale(0.996264)" xlink:href="#CMR17-48"/>
       <use transform="translate(91.380954 0)scale(0.996264)" xlink:href="#CMR17-48"/>
       <use transform="translate(137.071431 0)scale(0.996264)" xlink:href="#CMR17-48"/>
       <use transform="translate(182.761908 0)scale(0.996264)" xlink:href="#CMR17-48"/>
      </g>
     </g>
    </g>
    <g id="ytick_6">
     <g id="line2d_14">
      <g>
       <use style="stroke:#000000;stroke-width:0.8;" x="37.578189" xlink:href="#m882f42a523" y="59.385795"/>
      </g>
     </g>
     <g id="text_15">
      <!-- $12500$ -->
      <g transform="translate(12.313628 61.46134)scale(0.06 -0.06)">
       <use transform="scale(0.996264)" xlink:href="#CMR17-49"/>
       <use transform="translate(45.690477 0)scale(0.996264)" xlink:href="#CMR17-50"/>
       <use transform="translate(91.380954 0)scale(0.996264)" xlink:href="#CMR17-53"/>
       <use transform="translate(137.071431 0)scale(0.996264)" xlink:href="#CMR17-48"/>
       <use transform="translate(182.761908 0)scale(0.996264)" xlink:href="#CMR17-48"/>
      </g>
     </g>
    </g>
    <g id="ytick_7">
     <g id="line2d_15">
      <g>
       <use style="stroke:#000000;stroke-width:0.8;" x="37.578189" xlink:href="#m882f42a523" y="38.748357"/>
      </g>
     </g>
     <g id="text_16">
      <!-- $15000$ -->
      <g transform="translate(12.313628 40.823902)scale(0.06 -0.06)">
       <use transform="scale(0.996264)" xlink:href="#CMR17-49"/>
       <use transform="translate(45.690477 0)scale(0.996264)" xlink:href="#CMR17-53"/>
       <use transform="translate(91.380954 0)scale(0.996264)" xlink:href="#CMR17-48"/>
       <use transform="translate(137.071431 0)scale(0.996264)" xlink:href="#CMR17-48"/>
       <use transform="translate(182.761908 0)scale(0.996264)" xlink:href="#CMR17-48"/>
      </g>
     </g>
    </g>
    <g id="ytick_8">
     <g id="line2d_16">
      <g>
       <use style="stroke:#000000;stroke-width:0.8;" x="37.578189" xlink:href="#m882f42a523" y="18.110919"/>
      </g>
     </g>
     <g id="text_17">
      <!-- $17500$ -->
      <g transform="translate(12.313628 20.186464)scale(0.06 -0.06)">
       <use transform="scale(0.996264)" xlink:href="#CMR17-49"/>
       <use transform="translate(45.690477 0)scale(0.996264)" xlink:href="#CMR17-55"/>
       <use transform="translate(91.380954 0)scale(0.996264)" xlink:href="#CMR17-53"/>
       <use transform="translate(137.071431 0)scale(0.996264)" xlink:href="#CMR17-48"/>
       <use transform="translate(182.761908 0)scale(0.996264)" xlink:href="#CMR17-48"/>
      </g>
     </g>
    </g>
    <g id="text_18">
     <!-- Number of documents -->
     <defs>
      <path d="M 22.90625 65.3125 
L 21.09375 69 
L 8.796875 69 
L 8.796875 0 
L 16.59375 0 
L 16.59375 61.34375 
L 16.703125 61.4375 
C 17.40625 59.640625 17.796875 58.75 21.90625 49.90625 
L 43.296875 3.6875 
L 45.09375 0 
L 57.40625 0 
L 57.40625 69 
L 49.59375 69 
L 49.59375 7.65625 
L 49.5 7.546875 
C 48.796875 9.34375 48.40625 10.234375 44.296875 19.078125 
z
" id="CMSS17-78"/>
      <path d="M 67 29.328125 
C 67 36.0625 65.296875 44 54.09375 44 
C 46.59375 44 42.09375 39.3125 40.09375 36.421875 
C 38.296875 41.71875 34.09375 44 28.09375 44 
C 21.296875 44 17 40.125 14.703125 37.328125 
L 14.703125 43.09375 
L 7.40625 43.09375 
L 7.40625 0 
L 15 0 
L 15 24.359375 
C 15 30.296875 17.203125 37.9375 24.296875 37.9375 
C 33.40625 37.9375 33.40625 31.5 33.40625 28.578125 
L 33.40625 0 
L 41 0 
L 41 24.359375 
C 41 30.296875 43.203125 37.9375 50.296875 37.9375 
C 59.40625 37.9375 59.40625 31.5 59.40625 28.578125 
L 59.40625 0 
L 67 0 
z
" id="CMSS17-109"/>
      <path d="M 16.796875 37 
L 26.90625 37 
L 26.90625 42.765625 
L 16.59375 42.765625 
L 16.59375 55.609375 
C 16.59375 62.71875 22 63.9375 25.09375 63.9375 
C 26.09375 63.9375 28.90625 63.9375 32.5 62.640625 
L 32.5 69.203125 
C 30.203125 69.703125 27.40625 70 25.203125 70 
C 15.90625 70 9.40625 62.390625 9.40625 52.484375 
L 9.40625 42.765625 
L 2.5 42.765625 
L 2.5 37 
L 9.40625 37 
L 9.40625 0 
L 16.796875 0 
z
" id="CMSS17-102"/>
      <path d="M 40.796875 69 
L 33.40625 69 
L 33.40625 38.09375 
C 30.296875 40.671875 25.203125 43.0625 19.59375 43.0625 
C 10.5 43.0625 3.296875 33.296875 3.296875 21.046875 
C 3.296875 8.78125 10.40625 -1 19.296875 -1 
C 26.203125 -1 30.796875 2.6875 33.203125 4.78125 
L 33.203125 -0.203125 
L 40.796875 -0.203125 
z
M 33.203125 13.0625 
C 33.203125 11.671875 33.203125 10.203125 30.09375 7.53125 
C 28.09375 5.859375 25.703125 5.078125 23.40625 5.078125 
C 18 5.078125 10.90625 9 10.90625 20.9375 
C 10.90625 33.34375 18.90625 37 24.40625 37 
C 28.09375 37 31.09375 35.21875 33.203125 32.265625 
z
" id="CMSS17-100"/>
      <path d="M 32.203125 41.046875 
C 26.296875 43.859375 21.703125 43.859375 18.703125 43.859375 
C 11.59375 43.859375 3.09375 41.375 3.09375 31.296875 
C 3.09375 21.234375 14.09375 19.03125 17.09375 18.421875 
C 21.703125 17.53125 26.796875 16.53125 26.796875 11.5625 
C 26.796875 5.265625 19.59375 5.265625 18.296875 5.265625 
C 14.296875 5.265625 8.796875 6.359375 3.796875 9.96875 
L 2.59375 3.28125 
C 8.296875 0 13.796875 -1 18.40625 -1 
C 30.703125 -1 33.796875 6.5 33.796875 12.203125 
C 33.796875 17.09375 31 20.390625 29.09375 21.890625 
C 25.796875 24.5 24.59375 24.796875 16.40625 26.5 
C 15 26.703125 10.09375 27.796875 10.09375 32.28125 
C 10.09375 38 16.40625 38 17.796875 38 
C 24.296875 38 28.296875 35.984375 31 34.5 
z
" id="CMSS17-115"/>
     </defs>
     <g transform="translate(7.15133 117.468153)rotate(-90)scale(0.06 -0.06)">
      <use transform="scale(0.996264)" xlink:href="#CMSS17-78"/>
      <use transform="translate(66.061519 0)scale(0.996264)" xlink:href="#CMSS17-117"/>
      <use transform="translate(114.266462 0)scale(0.996264)" xlink:href="#CMSS17-109"/>
      <use transform="translate(188.495717 0)scale(0.996264)" xlink:href="#CMSS17-98"/>
      <use transform="translate(239.303099 0)scale(0.996264)" xlink:href="#CMSS17-101"/>
      <use transform="translate(280.941921 0)scale(0.996264)" xlink:href="#CMSS17-114"/>
      <use transform="translate(344.080806 0)scale(0.996264)" xlink:href="#CMSS17-111"/>
      <use transform="translate(390.92443 0)scale(0.996264)" xlink:href="#CMSS17-102"/>
      <use transform="translate(450.780201 0)scale(0.996264)" xlink:href="#CMSS17-100"/>
      <use transform="translate(498.985144 0)scale(0.996264)" xlink:href="#CMSS17-111"/>
      <use transform="translate(548.431206 0)scale(0.996264)" xlink:href="#CMSS17-99"/>
      <use transform="translate(590.070029 0)scale(0.996264)" xlink:href="#CMSS17-117"/>
      <use transform="translate(638.274972 0)scale(0.996264)" xlink:href="#CMSS17-109"/>
      <use transform="translate(712.504226 0)scale(0.996264)" xlink:href="#CMSS17-101"/>
      <use transform="translate(754.143048 0)scale(0.996264)" xlink:href="#CMSS17-110"/>
      <use transform="translate(802.347991 0)scale(0.996264)" xlink:href="#CMSS17-116"/>
      <use transform="translate(836.179558 0)scale(0.996264)" xlink:href="#CMSS17-115"/>
     </g>
    </g>
   </g>
   <g id="line2d_17">
    <path clip-path="url(#pc950959e58)" d="M -1 161.394489 
L 37.578189 161.235678 
L 50.492286 161.491583 
L 63.406382 161.194404 
L 76.320479 161.120109 
L 89.234575 161.210914 
L 102.148672 160.269846 
L 115.062768 159.469114 
L 127.976865 159.006835 
L 140.890961 158.346437 
L 153.805058 158.387712 
L 166.719154 157.644764 
L 179.633251 157.108191 
L 192.547347 156.257928 
L 205.461444 155.209547 
L 218.37554 154.532639 
L 231.289637 153.335667 
L 244.203733 152.254265 
L 257.11783 151.032529 
L 270.031926 149.0761 
L 282.946023 147.38383 
L 295.860119 145.70807 
L 308.774216 143.743386 
L 321.688312 140.226767 
L 334.602409 136.379948 
L 347.516505 135.397606 
L 360.430602 130.320796 
L 373.344698 125.425596 
L 386.258795 120.340531 
L 399.172891 114.545539 
L 412.086988 112.985349 
L 425.001084 105.605401 
L 437.915181 100.148862 
L 450.829277 96.186474 
L 463.743374 91.852612 
L 476.65747 85.281652 
" style="fill:none;stroke:#1f77b4;stroke-linecap:square;stroke-width:1.5;"/>
   </g>
   <g id="line2d_18">
    <path clip-path="url(#pc950959e58)" d="M 102.148672 162.572984 
L 102.148672 13.15133 
" style="fill:none;stroke:#808080;stroke-dasharray:1.85,0.8;stroke-dashoffset:0;stroke-width:0.5;"/>
   </g>
   <g id="line2d_19">
    <path clip-path="url(#pc950959e58)" d="M 166.719154 162.572984 
L 166.719154 13.15133 
" style="fill:none;stroke:#808080;stroke-dasharray:1.85,0.8;stroke-dashoffset:0;stroke-width:0.5;"/>
   </g>
   <g id="line2d_20">
    <path clip-path="url(#pc950959e58)" d="M 244.203733 162.572984 
L 244.203733 13.15133 
" style="fill:none;stroke:#808080;stroke-dasharray:1.85,0.8;stroke-dashoffset:0;stroke-width:0.5;"/>
   </g>
   <g id="line2d_21">
    <path clip-path="url(#pc950959e58)" d="M 321.688312 162.572984 
L 321.688312 13.15133 
" style="fill:none;stroke:#808080;stroke-dasharray:1.85,0.8;stroke-dashoffset:0;stroke-width:0.5;"/>
   </g>
   <g id="line2d_22">
    <path clip-path="url(#pc950959e58)" d="M 412.086988 162.572984 
L 412.086988 13.15133 
" style="fill:none;stroke:#808080;stroke-dasharray:1.85,0.8;stroke-dashoffset:0;stroke-width:0.5;"/>
   </g>
   <g id="line2d_23">
    <path clip-path="url(#pc950959e58)" d="M 502.485663 162.572984 
L 502.485663 13.15133 
" style="fill:none;stroke:#808080;stroke-dasharray:1.85,0.8;stroke-dashoffset:0;stroke-width:0.5;"/>
   </g>
   <g id="patch_3">
    <path d="M 37.578189 162.572984 
L 37.578189 13.15133 
" style="fill:none;stroke:#000000;stroke-linecap:square;stroke-linejoin:miter;stroke-width:0.8;"/>
   </g>
   <g id="patch_4">
    <path d="M 515.39976 162.572984 
L 515.39976 13.15133 
" style="fill:none;stroke:#000000;stroke-linecap:square;stroke-linejoin:miter;stroke-width:0.8;"/>
   </g>
   <g id="patch_5">
    <path d="M 37.578189 162.572984 
L 515.39976 162.572984 
" style="fill:none;stroke:#000000;stroke-linecap:square;stroke-linejoin:miter;stroke-width:0.8;"/>
   </g>
   <g id="patch_6">
    <path d="M 37.578189 13.15133 
L 515.39976 13.15133 
" style="fill:none;stroke:#000000;stroke-linecap:square;stroke-linejoin:miter;stroke-width:0.8;"/>
   </g>
   <g id="text_19">
    <!-- FAR -->
    <defs>
     <path d="M 45.59375 31 
L 45.59375 37.078125 
L 17.203125 37.078125 
L 17.203125 62 
L 29.40625 62 
C 30.59375 62 31.796875 62 33 62 
L 49.5 62 
L 49.5 68.359375 
L 8.796875 68.359375 
L 8.796875 -0.5 
L 17.203125 -0.5 
L 17.203125 31 
z
" id="CMSS17-70"/>
     <path d="M 35.5 69 
L 26.90625 69 
L 2.59375 0 
L 10.203125 0 
L 17.203125 20 
L 44 20 
L 51.09375 0 
L 59.796875 0 
z
M 42.09375 25.578125 
L 19.09375 25.578125 
C 23.90625 39.5 29.90625 56.84375 30.59375 61.328125 
L 30.703125 61.328125 
C 31.40625 57.234375 33.40625 51.265625 35.09375 46.1875 
z
" id="CMSS17-65"/>
     <path d="M 39.40625 32.953125 
L 39.59375 33.046875 
C 55.203125 38.421875 55.296875 49.171875 55.296875 51.0625 
C 55.296875 60.515625 45.703125 69.578125 31.296875 69.578125 
L 8.90625 69.578125 
L 8.90625 0.5 
L 17.09375 0.5 
L 17.09375 32 
L 31.796875 32 
L 49.5 0.5 
L 57.90625 0.5 
z
M 17.09375 38.078125 
L 17.09375 64 
L 30.203125 64 
C 42.90625 64 47.40625 56.828125 47.40625 51.046875 
C 47.40625 45.65625 43.40625 38.078125 30.203125 38.078125 
z
" id="CMSS17-82"/>
    </defs>
    <g transform="translate(92.60966 149.773437)scale(0.05 -0.05)">
     <use transform="scale(0.996264)" xlink:href="#CMSS17-70"/>
     <use transform="translate(45.482304 0)scale(0.996264)" xlink:href="#CMSS17-65"/>
     <use transform="translate(107.700159 0)scale(0.996264)" xlink:href="#CMSS17-82"/>
    </g>
    <!-- 457-1,452 -->
    <defs>
     <path d="M 35.203125 17 
L 44.296875 17 
L 44.296875 23.078125 
L 35.203125 23.078125 
L 35.203125 65.5 
L 26.40625 65.5 
L 2.59375 23.078125 
L 2.59375 17 
L 27.296875 17 
L 27.296875 0 
L 35.203125 0 
z
M 10.296875 23.078125 
C 16.09375 33.234375 27.59375 53.734375 27.59375 60.703125 
L 27.59375 23.078125 
z
" id="CMSS17-52"/>
     <path d="M 14.59375 58.625 
L 39.09375 58.625 
L 39.09375 65 
L 7.296875 65 
L 7.296875 27.828125 
L 14 27.828125 
C 15.796875 31.96875 19.5 35 24.296875 35 
C 28.796875 35 33.796875 31.078125 33.796875 19.78125 
C 33.796875 7.703125 26.703125 4.171875 21.5 4.171875 
C 15.09375 4.171875 9.203125 8 6.59375 13.296875 
L 3.40625 7.796875 
C 8 0.765625 15.5 -2 21.5 -2 
C 33.09375 -2 42.203125 7.765625 42.203125 19.578125 
C 42.203125 31.71875 34.09375 41.078125 24.40625 41.078125 
C 20.90625 41.078125 17.5 39.890625 14.59375 37.484375 
z
" id="CMSS17-53"/>
     <path d="M 21.703125 59 
C 22.90625 59 24.09375 59 25.296875 59 
L 36.796875 59 
C 22.5 42.359375 14.296875 21.328125 14.296875 -0.5 
L 22.296875 -0.5 
C 22.296875 20.671875 29.296875 42.125 43 59.296875 
L 43 65.765625 
L 3.90625 65.765625 
L 3.90625 59 
z
" id="CMSS17-55"/>
     <path d="M 26 19 
L 26 24.765625 
L 1 24.765625 
L 1 19 
z
" id="CMSS17-45"/>
     <path d="M 28.40625 67 
L 26.5 67 
C 21.09375 61.5625 14.796875 60.78125 8.40625 60.78125 
L 8.40625 55 
C 11.296875 55 16 55 20.703125 57.296875 
L 20.703125 5.765625 
L 8.90625 5.765625 
L 8.90625 0 
L 40.203125 0 
L 40.203125 5.765625 
L 28.40625 5.765625 
z
" id="CMSS17-49"/>
     <path d="M 17 0.09375 
L 17 7.96875 
L 9 7.96875 
L 9 0 
L 11.5 0 
L 8.90625 -12.5 
L 12.90625 -12.5 
z
" id="CMSS17-44"/>
     <path d="M 25.796875 21.203125 
C 28.59375 24.078125 32.796875 27.5625 35.703125 31.046875 
C 38.5 34.4375 42.203125 39.234375 42.203125 46.203125 
C 42.203125 57.140625 34.796875 67 22.203125 67 
C 12.296875 67 6.59375 60.828125 3.90625 51.15625 
L 7.796875 45.765625 
C 10 54.84375 13.09375 60.625 20.90625 60.625 
C 29.5 60.625 34.296875 53.640625 34.296875 45.96875 
C 34.296875 36.796875 27.296875 29.703125 22 24.421875 
C 16.09375 18.546875 10.296875 12.5625 4.703125 6.375 
L 4.703125 0 
L 42.203125 0 
L 42.203125 6.765625 
L 25.203125 6.765625 
C 24 6.765625 22.796875 6.765625 21.59375 6.765625 
L 11.59375 6.765625 
L 11.59375 6.859375 
z
" id="CMSS17-50"/>
    </defs>
    <g transform="translate(80.389737 154.893108)scale(0.05 -0.05)">
     <use transform="scale(0.996264)" xlink:href="#CMSS17-52"/>
     <use transform="translate(46.843624 0)scale(0.996264)" xlink:href="#CMSS17-53"/>
     <use transform="translate(93.687247 0)scale(0.996264)" xlink:href="#CMSS17-55"/>
     <use transform="translate(140.530871 0)scale(0.996264)" xlink:href="#CMSS17-45"/>
     <use transform="translate(171.759983 0)scale(0.996264)" xlink:href="#CMSS17-49"/>
     <use transform="translate(218.603607 0)scale(0.996264)" xlink:href="#CMSS17-44"/>
     <use transform="translate(244.627812 0)scale(0.996264)" xlink:href="#CMSS17-52"/>
     <use transform="translate(291.471435 0)scale(0.996264)" xlink:href="#CMSS17-53"/>
     <use transform="translate(338.315059 0)scale(0.996264)" xlink:href="#CMSS17-50"/>
    </g>
   </g>
   <g id="text_20">
    <!-- SAR -->
    <defs>
     <path d="M 43.703125 65.140625 
C 39.296875 67.71875 34.5 70 26.40625 70 
C 13.5 70 5.203125 60.609375 5.203125 51.03125 
C 5.203125 47.265625 6.296875 43.015625 10.203125 38.671875 
C 14.09375 34.3125 18.5 33.140625 24.09375 31.765625 
C 26.40625 31.15625 30.296875 30.0625 31 29.78125 
C 36.59375 27.609375 39.296875 22.5625 39.296875 17.8125 
C 39.296875 11.59375 34.40625 4.96875 25.703125 4.96875 
C 22.703125 4.96875 13.90625 4.96875 5.59375 12.796875 
L 4.203125 4.96875 
C 12.40625 -1 21.296875 -2 25.796875 -2 
C 38.09375 -2 46.90625 7.625 46.90625 18.53125 
C 46.90625 22.5 45.703125 27.546875 41.5 32.203125 
C 37.40625 36.671875 33.796875 37.65625 25.59375 39.828125 
C 20.90625 41.03125 17.90625 41.828125 15.40625 44.890625 
C 13.703125 47.078125 12.796875 49.15625 12.796875 51.828125 
C 12.796875 57.390625 17.59375 63.4375 26.40625 63.4375 
C 30.796875 63.4375 36.5 62.53125 42.296875 57.1875 
z
" id="CMSS17-83"/>
    </defs>
    <g transform="translate(156.825561 139.784917)scale(0.05 -0.05)">
     <use transform="scale(0.996264)" xlink:href="#CMSS17-83"/>
     <use transform="translate(52.048516 0)scale(0.996264)" xlink:href="#CMSS17-65"/>
     <use transform="translate(114.266371 0)scale(0.996264)" xlink:href="#CMSS17-82"/>
    </g>
    <!-- 1,208-3,534 -->
    <defs>
     <path d="M 43.09375 31.9375 
C 43.09375 37.578125 43 48.078125 38.90625 56.1875 
C 34.796875 64 28.203125 66.078125 23.5 66.078125 
C 16.703125 66.078125 10.90625 62.109375 7.90625 55.78125 
C 4.703125 49.15625 3.796875 42.328125 3.796875 31.9375 
C 3.796875 24.828125 4.09375 16.109375 7.703125 8.484375 
C 11.796875 0.078125 18.703125 -2 23.40625 -2 
C 29.59375 -2 35.59375 1.265625 39 8.09375 
C 42.5 15.21875 43.09375 23.03125 43.09375 31.9375 
z
M 23.40625 4.078125 
C 15.796875 4.078125 13.5 12.671875 12.796875 15.546875 
C 11.59375 20.46875 11.40625 25.21875 11.40625 33.03125 
C 11.40625 39.15625 11.40625 46.0625 13.296875 51.515625 
C 15.59375 57.828125 19.59375 60 23.40625 60 
C 30.796875 60 33.203125 52.6875 34 50.125 
C 35.5 44.890625 35.5 38.765625 35.5 33.03125 
C 35.5 23.84375 35.5 4.078125 23.40625 4.078125 
z
" id="CMSS17-48"/>
     <path d="M 30.203125 34.71875 
C 37.796875 37.1875 41.703125 43.125 41.703125 48.96875 
C 41.703125 58.15625 33.703125 66.078125 23.5 66.078125 
C 12.90625 66.078125 5.203125 57.9375 5.203125 49.125 
C 5.203125 43.4375 9 37.546875 16.703125 35.015625 
C 6.90625 31.203125 3.90625 23.625 3.90625 17.953125 
C 3.90625 6.96875 12.796875 -2 23.40625 -2 
C 34.40625 -2 43 7.109375 43 17.78125 
C 43 24.328125 39.09375 31.25 30.203125 34.71875 
z
M 23.5 38 
C 16.796875 38 12.296875 42.375 12.296875 49 
C 12.296875 55.71875 16.796875 60 23.5 60 
C 29.703125 60 34.59375 56.109375 34.59375 49 
C 34.59375 41.984375 29.796875 38 23.5 38 
z
M 23.5 4.171875 
C 17.796875 4.171875 11.703125 8.078125 11.703125 18.0625 
C 11.703125 28.328125 18.5 31.921875 23.40625 31.921875 
C 28.796875 31.921875 35.203125 28.125 35.203125 18.0625 
C 35.203125 7.671875 28.59375 4.171875 23.5 4.171875 
z
" id="CMSS17-56"/>
     <path d="M 15.703125 31.640625 
L 22.5 31.640625 
C 31.90625 31.640625 34.59375 23.546875 34.59375 17.90625 
C 34.59375 10.203125 30.203125 4.171875 23 4.171875 
C 17.40625 4.171875 9.5 6.9375 5 14.25 
C 4.296875 10.796875 4.296875 10.59375 3.90625 8.21875 
C 8.59375 1.375 16.203125 -2 23.203125 -2 
C 34.59375 -2 43 7.390625 43 17.78125 
C 43 25.59375 37.5 32.140625 30 34.609375 
C 36 37.875 40.40625 44 40.40625 51.140625 
C 40.40625 59.453125 32.703125 66.078125 23.296875 66.078125 
C 14.703125 66.078125 8 60.8125 5.203125 55.15625 
C 5.90625 54.1875 7.703125 51.3125 8.59375 49.828125 
C 10.796875 55.65625 16.5 60 23.203125 60 
C 28.796875 60 32.5 56.359375 32.5 51.109375 
C 32.5 45.671875 29 39.734375 23.09375 38.359375 
C 22.703125 38.359375 16.5 37.765625 15.703125 37.671875 
z
" id="CMSS17-51"/>
    </defs>
    <g transform="translate(140.843668 144.904588)scale(0.05 -0.05)">
     <use transform="scale(0.996264)" xlink:href="#CMSS17-49"/>
     <use transform="translate(46.843624 0)scale(0.996264)" xlink:href="#CMSS17-44"/>
     <use transform="translate(72.867828 0)scale(0.996264)" xlink:href="#CMSS17-50"/>
     <use transform="translate(119.711452 0)scale(0.996264)" xlink:href="#CMSS17-48"/>
     <use transform="translate(166.555075 0)scale(0.996264)" xlink:href="#CMSS17-56"/>
     <use transform="translate(213.398699 0)scale(0.996264)" xlink:href="#CMSS17-45"/>
     <use transform="translate(244.627812 0)scale(0.996264)" xlink:href="#CMSS17-51"/>
     <use transform="translate(291.471435 0)scale(0.996264)" xlink:href="#CMSS17-44"/>
     <use transform="translate(317.49564 0)scale(0.996264)" xlink:href="#CMSS17-53"/>
     <use transform="translate(364.339264 0)scale(0.996264)" xlink:href="#CMSS17-51"/>
     <use transform="translate(411.182887 0)scale(0.996264)" xlink:href="#CMSS17-52"/>
    </g>
   </g>
   <g id="text_21">
    <!-- TAR -->
    <defs>
     <path d="M 36.203125 62 
L 44.5 62 
C 45.703125 62 46.90625 62 48.09375 62 
L 60.59375 62 
L 60.59375 68.375 
L 3.40625 68.375 
L 3.40625 62 
L 15.90625 62 
C 17.09375 62 18.296875 62 19.5 62 
L 27.796875 62 
L 27.796875 -0.5 
L 36.203125 -0.5 
z
" id="CMSS17-84"/>
    </defs>
    <g transform="translate(234.07664 127.410709)scale(0.05 -0.05)">
     <use transform="scale(0.996264)" xlink:href="#CMSS17-84"/>
     <use transform="translate(56.012199 0)scale(0.996264)" xlink:href="#CMSS17-65"/>
     <use transform="translate(118.230053 0)scale(0.996264)" xlink:href="#CMSS17-82"/>
    </g>
    <!-- 2,985-8,412 -->
    <defs>
     <path d="M 6.796875 2.71875 
C 9.59375 0.328125 13.203125 -2 19.296875 -2 
C 31.40625 -2 43 11.265625 43 32.734375 
C 43 61.4375 30.5 66.078125 23.796875 66.078125 
C 17.09375 66.078125 12.796875 63.140625 9.09375 58.453125 
C 4.703125 53.078125 3.90625 48.28125 3.90625 42.703125 
C 3.90625 36.046875 5.09375 31.953125 7.90625 27.265625 
C 11.703125 21.203125 15.203125 19.921875 19.09375 19.921875 
C 25 19.921875 30.90625 22.796875 34.90625 27.75 
C 34.203125 14.09375 28.09375 4.171875 19.296875 4.171875 
C 15.703125 4.171875 12.796875 5.296875 9.90625 8.0625 
z
M 34.59375 42.90625 
C 34.703125 42.234375 34.703125 40.96875 34.703125 40.5625 
C 34.703125 32.40625 29.90625 26 22.90625 26 
C 18.296875 26 15.90625 28.328125 14.09375 31.34375 
C 11.90625 35.140625 11.796875 38.828125 11.796875 42.703125 
C 11.796875 46.5 11.796875 50.6875 14.59375 54.859375 
C 16.703125 57.859375 19.296875 60 23.796875 60 
C 33 60 34.5 46.875 34.59375 42.90625 
z
" id="CMSS17-57"/>
    </defs>
    <g transform="translate(218.328248 132.53038)scale(0.05 -0.05)">
     <use transform="scale(0.996264)" xlink:href="#CMSS17-50"/>
     <use transform="translate(46.843624 0)scale(0.996264)" xlink:href="#CMSS17-44"/>
     <use transform="translate(72.867828 0)scale(0.996264)" xlink:href="#CMSS17-57"/>
     <use transform="translate(119.711452 0)scale(0.996264)" xlink:href="#CMSS17-56"/>
     <use transform="translate(166.555075 0)scale(0.996264)" xlink:href="#CMSS17-53"/>
     <use transform="translate(213.398699 0)scale(0.996264)" xlink:href="#CMSS17-45"/>
     <use transform="translate(244.627812 0)scale(0.996264)" xlink:href="#CMSS17-56"/>
     <use transform="translate(291.471435 0)scale(0.996264)" xlink:href="#CMSS17-44"/>
     <use transform="translate(317.49564 0)scale(0.996264)" xlink:href="#CMSS17-52"/>
     <use transform="translate(364.339264 0)scale(0.996264)" xlink:href="#CMSS17-49"/>
     <use transform="translate(411.182887 0)scale(0.996264)" xlink:href="#CMSS17-50"/>
    </g>
   </g>
   <g id="text_22">
    <!-- AR4 -->
    <g transform="translate(312.088767 108.416011)scale(0.05 -0.05)">
     <use transform="scale(0.996264)" xlink:href="#CMSS17-65"/>
     <use transform="translate(62.217855 0)scale(0.996264)" xlink:href="#CMSS17-82"/>
     <use transform="translate(122.63401 0)scale(0.996264)" xlink:href="#CMSS17-52"/>
    </g>
    <!-- 6,700-16,707 -->
    <defs>
     <path d="M 39 64.078125 
C 34.796875 65.78125 31.796875 66.078125 29 66.078125 
C 16 66.078125 3.90625 52.625 3.90625 31.34375 
C 3.90625 4.140625 15.40625 -2 23.59375 -2 
C 28.09375 -2 32.59375 -0.609375 36.90625 4.375 
C 41.296875 9.640625 43 14.03125 43 21.703125 
C 43 34.046875 36.90625 45 27.796875 45 
C 21.203125 45 15.5 41.515625 12 37.125 
C 13 50.90625 19.59375 60 29.09375 60 
C 31.703125 60 35.09375 59.625 39 57.96875 
z
M 12.09375 21.390625 
C 12.09375 22.1875 12.09375 22.6875 12.203125 24.1875 
C 12.203125 31.953125 16.703125 38.921875 24 38.921875 
C 28.703125 38.921875 31.09375 36.4375 32.90625 33.359375 
C 35 29.46875 35.09375 25.78125 35.09375 21.6875 
C 35.09375 17.8125 35.09375 13.921875 32.796875 9.953125 
C 30.90625 6.859375 28.40625 4.171875 23.59375 4.171875 
C 14.09375 4.171875 12.5 17.40625 12.09375 21.390625 
z
" id="CMSS17-54"/>
    </defs>
    <g transform="translate(293.16647 113.535682)scale(0.05 -0.05)">
     <use transform="scale(0.996264)" xlink:href="#CMSS17-54"/>
     <use transform="translate(46.843624 0)scale(0.996264)" xlink:href="#CMSS17-44"/>
     <use transform="translate(72.867828 0)scale(0.996264)" xlink:href="#CMSS17-55"/>
     <use transform="translate(119.711452 0)scale(0.996264)" xlink:href="#CMSS17-48"/>
     <use transform="translate(166.555075 0)scale(0.996264)" xlink:href="#CMSS17-48"/>
     <use transform="translate(213.398699 0)scale(0.996264)" xlink:href="#CMSS17-45"/>
     <use transform="translate(244.627812 0)scale(0.996264)" xlink:href="#CMSS17-49"/>
     <use transform="translate(291.471435 0)scale(0.996264)" xlink:href="#CMSS17-54"/>
     <use transform="translate(338.315059 0)scale(0.996264)" xlink:href="#CMSS17-44"/>
     <use transform="translate(364.339264 0)scale(0.996264)" xlink:href="#CMSS17-55"/>
     <use transform="translate(411.182887 0)scale(0.996264)" xlink:href="#CMSS17-48"/>
     <use transform="translate(458.026511 0)scale(0.996264)" xlink:href="#CMSS17-55"/>
    </g>
   </g>
   <g id="text_23">
    <!-- AR5 -->
    <g transform="translate(402.487442 67.504354)scale(0.05 -0.05)">
     <use transform="scale(0.996264)" xlink:href="#CMSS17-65"/>
     <use transform="translate(62.217855 0)scale(0.996264)" xlink:href="#CMSS17-82"/>
     <use transform="translate(122.63401 0)scale(0.996264)" xlink:href="#CMSS17-53"/>
    </g>
    <!-- 17,832-45,077 -->
    <g transform="translate(380.918789 72.624026)scale(0.05 -0.05)">
     <use transform="scale(0.996264)" xlink:href="#CMSS17-49"/>
     <use transform="translate(46.843624 0)scale(0.996264)" xlink:href="#CMSS17-55"/>
     <use transform="translate(93.687247 0)scale(0.996264)" xlink:href="#CMSS17-44"/>
     <use transform="translate(119.711452 0)scale(0.996264)" xlink:href="#CMSS17-56"/>
     <use transform="translate(166.555075 0)scale(0.996264)" xlink:href="#CMSS17-51"/>
     <use transform="translate(213.398699 0)scale(0.996264)" xlink:href="#CMSS17-50"/>
     <use transform="translate(260.242322 0)scale(0.996264)" xlink:href="#CMSS17-45"/>
     <use transform="translate(291.471435 0)scale(0.996264)" xlink:href="#CMSS17-52"/>
     <use transform="translate(338.315059 0)scale(0.996264)" xlink:href="#CMSS17-53"/>
     <use transform="translate(385.158682 0)scale(0.996264)" xlink:href="#CMSS17-44"/>
     <use transform="translate(411.182887 0)scale(0.996264)" xlink:href="#CMSS17-48"/>
     <use transform="translate(458.026511 0)scale(0.996264)" xlink:href="#CMSS17-55"/>
     <use transform="translate(504.870134 0)scale(0.996264)" xlink:href="#CMSS17-55"/>
    </g>
   </g>
   <g id="text_24">
    <!-- AR6 -->
    <g transform="translate(492.886118 27.839198)scale(0.05 -0.05)">
     <use transform="scale(0.996264)" xlink:href="#CMSS17-65"/>
     <use transform="translate(62.217855 0)scale(0.996264)" xlink:href="#CMSS17-82"/>
     <use transform="translate(122.63401 0)scale(0.996264)" xlink:href="#CMSS17-54"/>
    </g>
    <!-- 34,473-87,861 -->
    <g transform="translate(471.317464 32.95887)scale(0.05 -0.05)">
     <use transform="scale(0.996264)" xlink:href="#CMSS17-51"/>
     <use transform="translate(46.843624 0)scale(0.996264)" xlink:href="#CMSS17-52"/>
     <use transform="translate(93.687247 0)scale(0.996264)" xlink:href="#CMSS17-44"/>
     <use transform="translate(119.711452 0)scale(0.996264)" xlink:href="#CMSS17-52"/>
     <use transform="translate(166.555075 0)scale(0.996264)" xlink:href="#CMSS17-55"/>
     <use transform="translate(213.398699 0)scale(0.996264)" xlink:href="#CMSS17-51"/>
     <use transform="translate(260.242322 0)scale(0.996264)" xlink:href="#CMSS17-45"/>
     <use transform="translate(291.471435 0)scale(0.996264)" xlink:href="#CMSS17-56"/>
     <use transform="translate(338.315059 0)scale(0.996264)" xlink:href="#CMSS17-55"/>
     <use transform="translate(385.158682 0)scale(0.996264)" xlink:href="#CMSS17-44"/>
     <use transform="translate(411.182887 0)scale(0.996264)" xlink:href="#CMSS17-56"/>
     <use transform="translate(458.026511 0)scale(0.996264)" xlink:href="#CMSS17-54"/>
     <use transform="translate(504.870134 0)scale(0.996264)" xlink:href="#CMSS17-49"/>
    </g>
   </g>
   <g id="text_25">
    <!-- a. -->
    <defs>
     <path d="M 17 7.96875 
L 9 7.96875 
L 9 0 
L 17 0 
z
" id="CMSS17-46"/>
    </defs>
    <g transform="translate(37.578189 7.15133)scale(0.06 -0.06)">
     <use transform="scale(0.996264)" xlink:href="#CMSS17-97"/>
     <use transform="translate(44.921921 0)scale(0.996264)" xlink:href="#CMSS17-46"/>
    </g>
   </g>
   <g id="axes_2">
    <g id="patch_7">
     <path d="M 95.982624 115.601644 
C 108.804427 115.601644 121.102808 110.522964 130.169192 101.484124 
C 139.235575 92.445284 144.329732 80.184266 144.329732 67.401416 
C 144.329732 54.618566 139.235575 42.357547 130.169192 33.318708 
C 121.102808 24.279868 108.804427 19.201188 95.982624 19.201188 
C 83.160821 19.201188 70.862439 24.279868 61.796056 33.318708 
C 52.729672 42.357547 47.635516 54.618566 47.635516 67.401416 
C 47.635516 80.184266 52.729672 92.445284 61.796056 101.484124 
C 70.862439 110.522964 83.160821 115.601644 95.982624 115.601644 
z
" style="fill:none;stroke:#000000;stroke-linejoin:miter;stroke-width:0.5;"/>
    </g>
    <g id="patch_8">
     <path d="M 95.982624 115.601644 
C 100.176959 115.601644 104.200069 113.94028 107.165912 110.983447 
C 110.131755 108.026615 111.798182 104.015726 111.798182 99.834134 
C 111.798182 95.652542 110.131755 91.641653 107.165912 88.684821 
C 104.200069 85.727988 100.176959 84.066624 95.982624 84.066624 
C 91.788289 84.066624 87.765178 85.727988 84.799335 88.684821 
C 81.833493 91.641653 80.167066 95.652542 80.167066 99.834134 
C 80.167066 104.015726 81.833493 108.026615 84.799335 110.983447 
C 87.765178 113.94028 91.788289 115.601644 95.982624 115.601644 
z
" style="fill:none;stroke:#000000;stroke-dasharray:1.85,0.8;stroke-dashoffset:0;stroke-linejoin:miter;stroke-width:0.5;"/>
    </g>
    <g id="patch_9">
     <path d="M 95.982624 115.601644 
C 102.682269 115.601644 109.108416 112.947933 113.845781 108.224961 
C 118.583145 103.501988 121.244942 97.095364 121.244942 90.416073 
C 121.244942 83.736781 118.583145 77.330157 113.845781 72.607185 
C 109.108416 67.884212 102.682269 65.230502 95.982624 65.230502 
C 89.282978 65.230502 82.856831 67.884212 78.119467 72.607185 
C 73.382102 77.330157 70.720305 83.736781 70.720305 90.416073 
C 70.720305 97.095364 73.382102 103.501988 78.119467 108.224961 
C 82.856831 112.947933 89.282978 115.601644 95.982624 115.601644 
z
" style="fill:none;stroke:#000000;stroke-dasharray:1.85,0.8;stroke-dashoffset:0;stroke-linejoin:miter;stroke-width:0.5;"/>
    </g>
    <g id="patch_10">
     <path d="M 95.982624 115.601644 
C 101.265955 115.601644 106.333606 113.508931 110.069485 109.784402 
C 113.805364 106.059872 115.904454 101.007617 115.904454 95.740337 
C 115.904454 90.473056 113.805364 85.420801 110.069485 81.696272 
C 106.333606 77.971742 101.265955 75.879029 95.982624 75.879029 
C 90.699292 75.879029 85.631642 77.971742 81.895762 81.696272 
C 78.159883 85.420801 76.060793 90.473056 76.060793 95.740337 
C 76.060793 101.007617 78.159883 106.059872 81.895762 109.784402 
C 85.631642 113.508931 90.699292 115.601644 95.982624 115.601644 
z
" style="fill:none;stroke:#000000;stroke-linejoin:miter;stroke-width:0.5;"/>
    </g>
    <g id="patch_11">
     <path d="M 95.982624 115.601644 
C 96.83033 115.601644 97.64343 115.26587 98.242849 114.668272 
C 98.842267 114.070675 99.179064 113.260045 99.179064 112.414914 
C 99.179064 111.569783 98.842267 110.759153 98.242849 110.161556 
C 97.64343 109.563958 96.83033 109.228184 95.982624 109.228184 
C 95.134918 109.228184 94.321817 109.563958 93.722399 110.161556 
C 93.12298 110.759153 92.786183 111.569783 92.786183 112.414914 
C 92.786183 113.260045 93.12298 114.070675 93.722399 114.668272 
C 94.321817 115.26587 95.134918 115.601644 95.982624 115.601644 
z
" style="fill:none;stroke:#000000;stroke-linejoin:miter;stroke-width:0.5;"/>
    </g>
    <g id="patch_12">
     <path d="M 95.982624 115.601644 
C 96.292309 115.601644 96.589352 115.478978 96.808333 115.260663 
C 97.027314 115.042347 97.150353 114.746206 97.150353 114.437462 
C 97.150353 114.128717 97.027314 113.832576 96.808333 113.614261 
C 96.589352 113.395945 96.292309 113.27328 95.982624 113.27328 
C 95.672938 113.27328 95.375895 113.395945 95.156914 113.614261 
C 94.937933 113.832576 94.814894 114.128717 94.814894 114.437462 
C 94.814894 114.746206 94.937933 115.042347 95.156914 115.260663 
C 95.375895 115.478978 95.672938 115.601644 95.982624 115.601644 
z
" style="fill:none;stroke:#000000;stroke-linejoin:miter;stroke-width:0.5;"/>
    </g>
    <g id="patch_13">
     <path d="M 150.253286 67.401416 
Q 148.29082 67.401416 146.328353 67.401416 
" style="fill:none;stroke:#000000;stroke-linecap:round;stroke-width:0.5;"/>
    </g>
    <g id="text_26">
     <!-- Query 601,677  -->
     <defs>
      <path d="M 50 3.15625 
C 62.203125 13.015625 64 26.390625 64 33.96875 
C 64 54.703125 50.296875 70.265625 34.59375 70.265625 
C 18.90625 70.265625 5.203125 54.640625 5.203125 34.03125 
C 5.203125 13.234375 19.09375 -2 34.59375 -2 
C 38.09375 -2 41.09375 -1.203125 43.203125 -0.40625 
L 51.59375 -13 
L 61.40625 -13 
z
M 39.5 5.0625 
C 38.09375 4.578125 36.40625 4.265625 34.59375 4.265625 
C 23.796875 4.265625 13.40625 15.515625 13.40625 34.03125 
C 13.40625 52.453125 23.703125 64 34.59375 64 
C 45.59375 64 55.796875 52.34375 55.796875 34.03125 
C 55.796875 27.671875 54.796875 17.015625 46.09375 8.84375 
L 38.90625 18.90625 
L 30.296875 18.90625 
z
" id="CMSS17-81"/>
     </defs>
     <g transform="translate(154.253876 68.646746)scale(0.05 -0.05)">
      <use transform="scale(0.996264)" xlink:href="#CMSS17-81"/>
      <use transform="translate(69.024255 0)scale(0.996264)" xlink:href="#CMSS17-117"/>
      <use transform="translate(117.229198 0)scale(0.996264)" xlink:href="#CMSS17-101"/>
      <use transform="translate(158.868021 0)scale(0.996264)" xlink:href="#CMSS17-114"/>
      <use transform="translate(190.777793 0)scale(0.996264)" xlink:href="#CMSS17-121"/>
      <use transform="translate(265.007048 0)scale(0.996264)" xlink:href="#CMSS17-54"/>
      <use transform="translate(311.850671 0)scale(0.996264)" xlink:href="#CMSS17-48"/>
      <use transform="translate(358.694295 0)scale(0.996264)" xlink:href="#CMSS17-49"/>
      <use transform="translate(405.537918 0)scale(0.996264)" xlink:href="#CMSS17-44"/>
      <use transform="translate(431.562123 0)scale(0.996264)" xlink:href="#CMSS17-54"/>
      <use transform="translate(478.405747 0)scale(0.996264)" xlink:href="#CMSS17-55"/>
      <use transform="translate(525.24937 0)scale(0.996264)" xlink:href="#CMSS17-55"/>
     </g>
    </g>
    <g id="patch_14">
     <path d="M 150.253493 95.740337 
Q 134.079004 95.740337 117.904514 95.740337 
" style="fill:none;stroke:#000000;stroke-linecap:round;stroke-width:0.5;"/>
    </g>
    <g id="text_27">
     <!-- Predicted 102,160  -->
     <g transform="translate(154.253876 94.121408)scale(0.05 -0.05)">
      <use transform="scale(0.996264)" xlink:href="#CMSS17-80"/>
      <use transform="translate(59.735586 0)scale(0.996264)" xlink:href="#CMSS17-114"/>
      <use transform="translate(91.645359 0)scale(0.996264)" xlink:href="#CMSS17-101"/>
      <use transform="translate(133.284181 0)scale(0.996264)" xlink:href="#CMSS17-100"/>
      <use transform="translate(181.489124 0)scale(0.996264)" xlink:href="#CMSS17-105"/>
      <use transform="translate(203.669847 0)scale(0.996264)" xlink:href="#CMSS17-99"/>
      <use transform="translate(245.308669 0)scale(0.996264)" xlink:href="#CMSS17-116"/>
      <use transform="translate(279.140236 0)scale(0.996264)" xlink:href="#CMSS17-101"/>
      <use transform="translate(320.779058 0)scale(0.996264)" xlink:href="#CMSS17-100"/>
      <use transform="translate(400.213114 0)scale(0.996264)" xlink:href="#CMSS17-49"/>
      <use transform="translate(447.056737 0)scale(0.996264)" xlink:href="#CMSS17-48"/>
      <use transform="translate(493.900361 0)scale(0.996264)" xlink:href="#CMSS17-50"/>
      <use transform="translate(540.743984 0)scale(0.996264)" xlink:href="#CMSS17-44"/>
      <use transform="translate(566.768189 0)scale(0.996264)" xlink:href="#CMSS17-49"/>
      <use transform="translate(613.611813 0)scale(0.996264)" xlink:href="#CMSS17-54"/>
      <use transform="translate(660.455436 0)scale(0.996264)" xlink:href="#CMSS17-48"/>
     </g>
     <!-- (64,386-164,274) -->
     <defs>
      <path d="M 25.203125 74.5 
C 19.796875 69.015625 7.40625 56.265625 7.40625 24.8125 
C 7.40625 -6.765625 19.796875 -19.421875 25.203125 -25 
L 31.296875 -25 
C 19 -12.25 15 5.578125 15 24.703125 
C 15 43.71875 18.796875 61.65625 31.296875 74.5 
z
" id="CMSS17-40"/>
      <path d="M 11.296875 -25 
C 16.703125 -19.515625 29.09375 -6.765625 29.09375 24.703125 
C 29.09375 56.265625 16.703125 68.921875 11.296875 74.5 
L 5.203125 74.5 
C 17.5 61.75 21.5 43.921875 21.5 24.8125 
C 21.5 5.78125 17.703125 -12.15625 5.203125 -25 
z
" id="CMSS17-41"/>
     </defs>
     <g transform="translate(154.253876 99.573177)scale(0.05 -0.05)">
      <use transform="scale(0.996264)" xlink:href="#CMSS17-40"/>
      <use transform="translate(36.433914 0)scale(0.996264)" xlink:href="#CMSS17-54"/>
      <use transform="translate(83.277538 0)scale(0.996264)" xlink:href="#CMSS17-52"/>
      <use transform="translate(130.121161 0)scale(0.996264)" xlink:href="#CMSS17-44"/>
      <use transform="translate(156.145366 0)scale(0.996264)" xlink:href="#CMSS17-51"/>
      <use transform="translate(202.98899 0)scale(0.996264)" xlink:href="#CMSS17-56"/>
      <use transform="translate(249.832613 0)scale(0.996264)" xlink:href="#CMSS17-54"/>
      <use transform="translate(296.676237 0)scale(0.996264)" xlink:href="#CMSS17-45"/>
      <use transform="translate(327.905349 0)scale(0.996264)" xlink:href="#CMSS17-49"/>
      <use transform="translate(374.748973 0)scale(0.996264)" xlink:href="#CMSS17-54"/>
      <use transform="translate(421.592596 0)scale(0.996264)" xlink:href="#CMSS17-52"/>
      <use transform="translate(468.43622 0)scale(0.996264)" xlink:href="#CMSS17-44"/>
      <use transform="translate(494.460425 0)scale(0.996264)" xlink:href="#CMSS17-50"/>
      <use transform="translate(541.304048 0)scale(0.996264)" xlink:href="#CMSS17-55"/>
      <use transform="translate(588.147672 0)scale(0.996264)" xlink:href="#CMSS17-52"/>
      <use transform="translate(634.991295 0)scale(0.996264)" xlink:href="#CMSS17-41"/>
     </g>
    </g>
    <g id="patch_15">
     <path d="M 150.24778 109.228184 
Q 124.113795 109.228184 97.979809 109.228184 
" style="fill:none;stroke:#000000;stroke-linecap:round;stroke-width:0.5;"/>
    </g>
    <g id="text_28">
     <!-- Screened 2,630  -->
     <g transform="translate(154.253876 110.473514)scale(0.05 -0.05)">
      <use transform="scale(0.996264)" xlink:href="#CMSS17-83"/>
      <use transform="translate(52.048516 0)scale(0.996264)" xlink:href="#CMSS17-99"/>
      <use transform="translate(93.687338 0)scale(0.996264)" xlink:href="#CMSS17-114"/>
      <use transform="translate(125.597111 0)scale(0.996264)" xlink:href="#CMSS17-101"/>
      <use transform="translate(167.235933 0)scale(0.996264)" xlink:href="#CMSS17-101"/>
      <use transform="translate(208.874755 0)scale(0.996264)" xlink:href="#CMSS17-110"/>
      <use transform="translate(257.079698 0)scale(0.996264)" xlink:href="#CMSS17-101"/>
      <use transform="translate(298.71852 0)scale(0.996264)" xlink:href="#CMSS17-100"/>
      <use transform="translate(378.152576 0)scale(0.996264)" xlink:href="#CMSS17-50"/>
      <use transform="translate(424.9962 0)scale(0.996264)" xlink:href="#CMSS17-44"/>
      <use transform="translate(451.020404 0)scale(0.996264)" xlink:href="#CMSS17-54"/>
      <use transform="translate(497.864028 0)scale(0.996264)" xlink:href="#CMSS17-51"/>
      <use transform="translate(544.707651 0)scale(0.996264)" xlink:href="#CMSS17-48"/>
     </g>
    </g>
    <g id="patch_16">
     <path d="M 121.973199 114.437462 
Q 110.563235 114.437462 99.153271 114.437462 
" style="fill:none;stroke:#000000;stroke-linecap:round;stroke-width:0.5;"/>
    </g>
    <g id="text_29">
     <!-- AR5 351  -->
     <g transform="translate(125.97518 115.682792)scale(0.05 -0.05)">
      <use transform="scale(0.996264)" xlink:href="#CMSS17-65"/>
      <use transform="translate(62.217855 0)scale(0.996264)" xlink:href="#CMSS17-82"/>
      <use transform="translate(122.63401 0)scale(0.996264)" xlink:href="#CMSS17-53"/>
      <use transform="translate(200.706746 0)scale(0.996264)" xlink:href="#CMSS17-51"/>
      <use transform="translate(247.55037 0)scale(0.996264)" xlink:href="#CMSS17-53"/>
      <use transform="translate(294.393993 0)scale(0.996264)" xlink:href="#CMSS17-49"/>
     </g>
    </g>
   </g>
  </g>
 </g>
 <defs>
  <clipPath id="pc950959e58">
   <rect height="149.421655" width="477.821571" x="37.578189" y="13.15133"/>
  </clipPath>
 </defs>
</svg>
