<?xml version="1.0" encoding="utf-8" standalone="no"?>
<!DOCTYPE svg PUBLIC "-//W3C//DTD SVG 1.1//EN"
  "http://www.w3.org/Graphics/SVG/1.1/DTD/svg11.dtd">
<!-- Created with matplotlib (https://matplotlib.org/) -->
<svg height="144pt" version="1.1" viewBox="0 0 259.2 144" width="259.2pt" xmlns="http://www.w3.org/2000/svg" xmlns:xlink="http://www.w3.org/1999/xlink">
 <defs>
  <style type="text/css">
*{stroke-linecap:butt;stroke-linejoin:round;}
  </style>
 </defs>
 <g id="figure_1">
  <g id="patch_1">
   <path d="M 0 144 
L 259.2 144 
L 259.2 0 
L 0 0 
z
" style="fill:#ffffff;"/>
  </g>
  <g id="axes_1">
   <g id="patch_2">
    <path d="M 32.4 126 
L 233.28 126 
L 233.28 17.28 
L 32.4 17.28 
z
" style="fill:#ffffff;"/>
   </g>
   <g id="patch_3">
    <path clip-path="url(#pddb5097b36)" d="M 41.530909 126 
L 66.719624 126 
L 66.719624 106.482017 
L 41.530909 106.482017 
z
" style="fill:#1f77b4;"/>
   </g>
   <g id="patch_4">
    <path clip-path="url(#pddb5097b36)" d="M 73.016803 126 
L 98.205517 126 
L 98.205517 121.847252 
L 73.016803 121.847252 
z
" style="fill:#1f77b4;"/>
   </g>
   <g id="patch_5">
    <path clip-path="url(#pddb5097b36)" d="M 104.502696 126 
L 129.691411 126 
L 129.691411 117.099557 
L 104.502696 117.099557 
z
" style="fill:#1f77b4;"/>
   </g>
   <g id="patch_6">
    <path clip-path="url(#pddb5097b36)" d="M 135.988589 126 
L 161.177304 126 
L 161.177304 123.830414 
L 135.988589 123.830414 
z
" style="fill:#1f77b4;"/>
   </g>
   <g id="patch_7">
    <path clip-path="url(#pddb5097b36)" d="M 167.474483 126 
L 192.663197 126 
L 192.663197 123.749013 
L 167.474483 123.749013 
z
" style="fill:#1f77b4;"/>
   </g>
   <g id="patch_8">
    <path clip-path="url(#pddb5097b36)" d="M 198.960376 126 
L 224.149091 126 
L 224.149091 60.138203 
L 198.960376 60.138203 
z
" style="fill:#1f77b4;"/>
   </g>
   <g id="matplotlib.axis_1">
    <g id="xtick_1">
     <g id="line2d_1">
      <defs>
       <path d="M 0 0 
L 0 3.5 
" id="m69ca0c05f3" style="stroke:#000000;stroke-width:0.8;"/>
      </defs>
      <g>
       <use style="stroke:#000000;stroke-width:0.8;" x="54.125266" xlink:href="#m69ca0c05f3" y="126"/>
      </g>
     </g>
     <g id="text_1">
      <!-- North America -->
      <defs>
       <path d="M 22.90625 65.3125 
L 21.09375 69 
L 8.796875 69 
L 8.796875 0 
L 16.59375 0 
L 16.59375 61.34375 
L 16.703125 61.4375 
C 17.40625 59.640625 17.796875 58.75 21.90625 49.90625 
L 43.296875 3.6875 
L 45.09375 0 
L 57.40625 0 
L 57.40625 69 
L 49.59375 69 
L 49.59375 7.65625 
L 49.5 7.546875 
C 48.796875 9.34375 48.40625 10.234375 44.296875 19.078125 
z
" id="CMSS17-78"/>
       <path d="M 44.203125 21.1875 
C 44.203125 34 34.703125 44 23.5 44 
C 12 44 2.703125 33.703125 2.703125 21.1875 
C 2.703125 8.5 12.296875 -1 23.40625 -1 
C 34.796875 -1 44.203125 8.796875 44.203125 21.1875 
z
M 23.5 5.265625 
C 16.40625 5.265625 10.296875 11.078125 10.296875 22 
C 10.296875 33.609375 17.40625 37.921875 23.40625 37.921875 
C 29.90625 37.921875 36.59375 33.21875 36.59375 22 
C 36.59375 10.671875 30.09375 5.265625 23.5 5.265625 
z
" id="CMSS17-111"/>
       <path d="M 14.90625 21.296875 
C 14.90625 30.703125 21.796875 37 30.59375 37 
L 30.59375 43.578125 
C 24.203125 43.578125 18.203125 40.390625 14.59375 35.203125 
L 14.59375 43.09375 
L 7.5 43.09375 
L 7.5 0 
L 14.90625 0 
z
" id="CMSS17-114"/>
       <path d="M 16.703125 37 
L 29.703125 37 
L 29.703125 42.765625 
L 16.703125 42.765625 
L 16.703125 55 
L 9.59375 55 
L 9.59375 42.765625 
L 1.703125 42.765625 
L 1.703125 37 
L 9.40625 37 
L 9.40625 11.703125 
C 9.40625 6 10.703125 -1 17.296875 -1 
C 22.296875 -1 26.90625 0.390625 31.296875 2.6875 
L 29.703125 8.5625 
C 27.296875 6.46875 24.40625 5.265625 21.296875 5.265625 
C 16.90625 5.265625 16.703125 10.875 16.703125 13.375 
z
" id="CMSS17-116"/>
       <path d="M 40.90625 29.546875 
C 40.90625 35.8125 39.40625 44.0625 28.09375 44.0625 
C 21.796875 44.0625 17.703125 40.984375 14.796875 37.609375 
L 14.796875 69.5 
L 7.40625 69.5 
L 7.40625 0.5 
L 15 0.5 
L 15 24.578125 
C 15 30.828125 17.40625 38 24.203125 38 
C 33 38 33.296875 32.125 33.296875 28.734375 
L 33.296875 0.5 
L 40.90625 0.5 
z
" id="CMSS17-104"/>
       <path d="M 35.5 69 
L 26.90625 69 
L 2.59375 0 
L 10.203125 0 
L 17.203125 20 
L 44 20 
L 51.09375 0 
L 59.796875 0 
z
M 42.09375 25.578125 
L 19.09375 25.578125 
C 23.90625 39.5 29.90625 56.84375 30.59375 61.328125 
L 30.703125 61.328125 
C 31.40625 57.234375 33.40625 51.265625 35.09375 46.1875 
z
" id="CMSS17-65"/>
       <path d="M 67 29.328125 
C 67 36.0625 65.296875 44 54.09375 44 
C 46.59375 44 42.09375 39.3125 40.09375 36.421875 
C 38.296875 41.71875 34.09375 44 28.09375 44 
C 21.296875 44 17 40.125 14.703125 37.328125 
L 14.703125 43.09375 
L 7.40625 43.09375 
L 7.40625 0 
L 15 0 
L 15 24.359375 
C 15 30.296875 17.203125 37.9375 24.296875 37.9375 
C 33.40625 37.9375 33.40625 31.5 33.40625 28.578125 
L 33.40625 0 
L 41 0 
L 41 24.359375 
C 41 30.296875 43.203125 37.9375 50.296875 37.9375 
C 59.40625 37.9375 59.40625 31.5 59.40625 28.578125 
L 59.40625 0 
L 67 0 
z
" id="CMSS17-109"/>
       <path d="M 39.09375 21.515625 
C 39.09375 24.84375 38.90625 31.296875 35.703125 36.640625 
C 32.203125 42.390625 26.5 44 22.203125 44 
C 11.796875 44 3 34.1875 3 21.484375 
C 3 9.09375 12.09375 -1 23.59375 -1 
C 28.09375 -1 33.59375 0.296875 38.59375 3.875 
C 38.59375 4.28125 38.40625 6.46875 38.296875 6.5625 
C 38.296875 6.765625 38 9.84375 38 10.25 
C 33.203125 6.359375 27.703125 5.078125 23.703125 5.078125 
C 17.296875 5.078125 10.40625 10.421875 10.09375 21.515625 
z
M 10.90625 27 
C 12.203125 32.5625 16.59375 37.828125 22.203125 37.828125 
C 23.703125 37.828125 30.703125 37.828125 32.5 27 
z
" id="CMSS17-101"/>
       <path d="M 15.296875 65.359375 
L 6.90625 65.359375 
L 6.90625 57 
L 15.296875 57 
z
M 14.796875 42.796875 
L 7.40625 42.796875 
L 7.40625 0 
L 14.796875 0 
z
" id="CMSS17-105"/>
       <path d="M 38.5 39.703125 
C 38.5 40.390625 33.90625 42.40625 32.703125 42.796875 
C 29.40625 44 25.203125 44 24.09375 44 
C 11.09375 44 3.296875 32.703125 3.296875 21.296875 
C 3.296875 9.296875 12 -1 23.703125 -1 
C 30.40625 -1 35.203125 1.1875 39.09375 3.78125 
L 38.5 10.375 
C 34.203125 7.078125 29.203125 5.265625 23.796875 5.265625 
C 16 5.265625 10.90625 12.09375 10.90625 21.390625 
C 10.90625 28.609375 14.203125 37.71875 24.203125 37.71875 
C 29.703125 37.71875 32.796875 36.609375 37.40625 33.515625 
z
" id="CMSS17-99"/>
       <path d="M 37.59375 27.984375 
C 37.59375 37.375 30.90625 43.875 21.90625 43.875 
C 17.5 43.875 12.703125 43.078125 7.203125 39.890625 
L 7.796875 33.359375 
C 10.296875 35.125 14.59375 38 21.796875 38 
C 26.90625 38 30 34.0625 30 27.84375 
L 30 24 
C 14 24 4 19.34375 4 11.34375 
C 4 7.203125 6.5 -1 14.796875 -1 
C 16.296875 -1 24.40625 -1 30.203125 3.390625 
L 30.203125 -0.296875 
L 37.59375 -0.296875 
z
M 30 12.75 
C 30 10.953125 30 8.5625 27 6.78125 
C 24.40625 5.078125 21.09375 5.078125 19.703125 5.078125 
C 14.703125 5.078125 11.296875 7.984375 11.296875 11.625 
C 11.296875 18.921875 26.90625 18.921875 30 18.921875 
z
" id="CMSS17-97"/>
      </defs>
      <g transform="translate(25.726197 163.512464)rotate(-45)scale(0.06 -0.06)">
       <use transform="scale(0.996264)" xlink:href="#CMSS17-78"/>
       <use transform="translate(66.061519 0)scale(0.996264)" xlink:href="#CMSS17-111"/>
       <use transform="translate(110.302689 0)scale(0.996264)" xlink:href="#CMSS17-114"/>
       <use transform="translate(142.212461 0)scale(0.996264)" xlink:href="#CMSS17-116"/>
       <use transform="translate(176.044028 0)scale(0.996264)" xlink:href="#CMSS17-104"/>
       <use transform="translate(255.478084 0)scale(0.996264)" xlink:href="#CMSS17-65"/>
       <use transform="translate(317.695939 0)scale(0.996264)" xlink:href="#CMSS17-109"/>
       <use transform="translate(391.925193 0)scale(0.996264)" xlink:href="#CMSS17-101"/>
       <use transform="translate(433.564015 0)scale(0.996264)" xlink:href="#CMSS17-114"/>
       <use transform="translate(465.473788 0)scale(0.996264)" xlink:href="#CMSS17-105"/>
       <use transform="translate(487.654511 0)scale(0.996264)" xlink:href="#CMSS17-99"/>
       <use transform="translate(529.293333 0)scale(0.996264)" xlink:href="#CMSS17-97"/>
      </g>
     </g>
    </g>
    <g id="xtick_2">
     <g id="line2d_2">
      <g>
       <use style="stroke:#000000;stroke-width:0.8;" x="85.61116" xlink:href="#m69ca0c05f3" y="126"/>
      </g>
     </g>
     <g id="text_2">
      <!-- South America -->
      <defs>
       <path d="M 43.703125 65.140625 
C 39.296875 67.71875 34.5 70 26.40625 70 
C 13.5 70 5.203125 60.609375 5.203125 51.03125 
C 5.203125 47.265625 6.296875 43.015625 10.203125 38.671875 
C 14.09375 34.3125 18.5 33.140625 24.09375 31.765625 
C 26.40625 31.15625 30.296875 30.0625 31 29.78125 
C 36.59375 27.609375 39.296875 22.5625 39.296875 17.8125 
C 39.296875 11.59375 34.40625 4.96875 25.703125 4.96875 
C 22.703125 4.96875 13.90625 4.96875 5.59375 12.796875 
L 4.203125 4.96875 
C 12.40625 -1 21.296875 -2 25.796875 -2 
C 38.09375 -2 46.90625 7.625 46.90625 18.53125 
C 46.90625 22.5 45.703125 27.546875 41.5 32.203125 
C 37.40625 36.671875 33.796875 37.65625 25.59375 39.828125 
C 20.90625 41.03125 17.90625 41.828125 15.40625 44.890625 
C 13.703125 47.078125 12.796875 49.15625 12.796875 51.828125 
C 12.796875 57.390625 17.59375 63.4375 26.40625 63.4375 
C 30.796875 63.4375 36.5 62.53125 42.296875 57.1875 
z
" id="CMSS17-83"/>
       <path d="M 40.90625 42.796875 
L 33.296875 42.796875 
L 33.296875 15.1875 
C 33.296875 7.78125 27.90625 4.78125 22.203125 4.78125 
C 15.59375 4.78125 15 6.984375 15 11.078125 
L 15 42.796875 
L 7.40625 42.796875 
L 7.40625 10.59375 
C 7.40625 2.796875 10.09375 -1 17 -1 
C 20.40625 -1 28.09375 -0.203125 33.5 4.78125 
L 33.5 0 
L 40.90625 0 
z
" id="CMSS17-117"/>
      </defs>
      <g transform="translate(56.977251 163.747304)rotate(-45)scale(0.06 -0.06)">
       <use transform="scale(0.996264)" xlink:href="#CMSS17-83"/>
       <use transform="translate(52.048516 0)scale(0.996264)" xlink:href="#CMSS17-111"/>
       <use transform="translate(98.89214 0)scale(0.996264)" xlink:href="#CMSS17-117"/>
       <use transform="translate(147.097083 0)scale(0.996264)" xlink:href="#CMSS17-116"/>
       <use transform="translate(180.92865 0)scale(0.996264)" xlink:href="#CMSS17-104"/>
       <use transform="translate(260.362705 0)scale(0.996264)" xlink:href="#CMSS17-65"/>
       <use transform="translate(322.58056 0)scale(0.996264)" xlink:href="#CMSS17-109"/>
       <use transform="translate(396.809815 0)scale(0.996264)" xlink:href="#CMSS17-101"/>
       <use transform="translate(438.448637 0)scale(0.996264)" xlink:href="#CMSS17-114"/>
       <use transform="translate(470.358409 0)scale(0.996264)" xlink:href="#CMSS17-105"/>
       <use transform="translate(492.539132 0)scale(0.996264)" xlink:href="#CMSS17-99"/>
       <use transform="translate(534.177954 0)scale(0.996264)" xlink:href="#CMSS17-97"/>
      </g>
     </g>
    </g>
    <g id="xtick_3">
     <g id="line2d_3">
      <g>
       <use style="stroke:#000000;stroke-width:0.8;" x="117.097053" xlink:href="#m69ca0c05f3" y="126"/>
      </g>
     </g>
     <g id="text_3">
      <!-- Europe -->
      <defs>
       <path d="M 30.59375 6.765625 
C 22.59375 6.765625 19 6.765625 17.203125 6.765625 
L 17.203125 32.921875 
L 48.203125 32.921875 
L 48.203125 39 
L 17.203125 39 
L 17.203125 62.640625 
L 30.09375 62.640625 
C 31.296875 62.640625 32.5 62.640625 33.703125 62.640625 
L 50.796875 62.640625 
L 50.796875 69 
L 8.796875 69 
L 8.796875 0 
L 52.09375 0 
L 52.09375 6.765625 
z
" id="CMSS17-69"/>
       <path d="M 15.09375 5.203125 
C 18.40625 2.015625 22.90625 -0.078125 27.703125 -0.078125 
C 37 -0.078125 45 9.421875 45 22.0625 
C 45 33.734375 39 44 30.40625 44 
C 25.40625 44 19.40625 42.21875 14.90625 38.625 
L 14.90625 43.203125 
L 7.5 43.203125 
L 7.5 -19 
L 15.09375 -19 
z
M 15.09375 32.8125 
C 15.90625 34 19.296875 37.734375 24.796875 37.734375 
C 31.796875 37.734375 37.40625 30.625 37.40625 22.0625 
C 37.40625 12.296875 30.59375 6 23.90625 6 
C 21.90625 6 19.796875 6.484375 17.796875 8.171875 
C 15.09375 10.53125 15.09375 12 15.09375 13.390625 
z
" id="CMSS17-112"/>
      </defs>
      <g transform="translate(103.044289 149.166159)rotate(-45)scale(0.06 -0.06)">
       <use transform="scale(0.996264)" xlink:href="#CMSS17-69"/>
       <use transform="translate(55.892013 0)scale(0.996264)" xlink:href="#CMSS17-117"/>
       <use transform="translate(104.096956 0)scale(0.996264)" xlink:href="#CMSS17-114"/>
       <use transform="translate(136.006729 0)scale(0.996264)" xlink:href="#CMSS17-111"/>
       <use transform="translate(182.850352 0)scale(0.996264)" xlink:href="#CMSS17-112"/>
       <use transform="translate(233.657734 0)scale(0.996264)" xlink:href="#CMSS17-101"/>
      </g>
     </g>
    </g>
    <g id="xtick_4">
     <g id="line2d_4">
      <g>
       <use style="stroke:#000000;stroke-width:0.8;" x="148.582947" xlink:href="#m69ca0c05f3" y="126"/>
      </g>
     </g>
     <g id="text_4">
      <!-- Africa -->
      <defs>
       <path d="M 16.796875 37 
L 26.90625 37 
L 26.90625 42.765625 
L 16.59375 42.765625 
L 16.59375 55.609375 
C 16.59375 62.71875 22 63.9375 25.09375 63.9375 
C 26.09375 63.9375 28.90625 63.9375 32.5 62.640625 
L 32.5 69.203125 
C 30.203125 69.703125 27.40625 70 25.203125 70 
C 15.90625 70 9.40625 62.390625 9.40625 52.484375 
L 9.40625 42.765625 
L 2.5 42.765625 
L 2.5 37 
L 9.40625 37 
L 9.40625 0 
L 16.796875 0 
z
" id="CMSS17-102"/>
      </defs>
      <g transform="translate(136.636268 147.060073)rotate(-45)scale(0.06 -0.06)">
       <use transform="scale(0.996264)" xlink:href="#CMSS17-65"/>
       <use transform="translate(62.217855 0)scale(0.996264)" xlink:href="#CMSS17-102"/>
       <use transform="translate(90.844514 0)scale(0.996264)" xlink:href="#CMSS17-114"/>
       <use transform="translate(122.754286 0)scale(0.996264)" xlink:href="#CMSS17-105"/>
       <use transform="translate(144.935009 0)scale(0.996264)" xlink:href="#CMSS17-99"/>
       <use transform="translate(186.573831 0)scale(0.996264)" xlink:href="#CMSS17-97"/>
      </g>
     </g>
    </g>
    <g id="xtick_5">
     <g id="line2d_5">
      <g>
       <use style="stroke:#000000;stroke-width:0.8;" x="180.06884" xlink:href="#m69ca0c05f3" y="126"/>
      </g>
     </g>
     <g id="text_5">
      <!-- Asia -->
      <defs>
       <path d="M 32.203125 41.046875 
C 26.296875 43.859375 21.703125 43.859375 18.703125 43.859375 
C 11.59375 43.859375 3.09375 41.375 3.09375 31.296875 
C 3.09375 21.234375 14.09375 19.03125 17.09375 18.421875 
C 21.703125 17.53125 26.796875 16.53125 26.796875 11.5625 
C 26.796875 5.265625 19.59375 5.265625 18.296875 5.265625 
C 14.296875 5.265625 8.796875 6.359375 3.796875 9.96875 
L 2.59375 3.28125 
C 8.296875 0 13.796875 -1 18.40625 -1 
C 30.703125 -1 33.796875 6.5 33.796875 12.203125 
C 33.796875 17.09375 31 20.390625 29.09375 21.890625 
C 25.796875 24.5 24.59375 24.796875 16.40625 26.5 
C 15 26.703125 10.09375 27.796875 10.09375 32.28125 
C 10.09375 38 16.40625 38 17.796875 38 
C 24.296875 38 28.296875 35.984375 31 34.5 
z
" id="CMSS17-115"/>
      </defs>
      <g transform="translate(171.302574 143.879661)rotate(-45)scale(0.06 -0.06)">
       <use transform="scale(0.996264)" xlink:href="#CMSS17-65"/>
       <use transform="translate(62.217855 0)scale(0.996264)" xlink:href="#CMSS17-115"/>
       <use transform="translate(98.131397 0)scale(0.996264)" xlink:href="#CMSS17-105"/>
       <use transform="translate(120.31212 0)scale(0.996264)" xlink:href="#CMSS17-97"/>
      </g>
     </g>
    </g>
    <g id="xtick_6">
     <g id="line2d_6">
      <g>
       <use style="stroke:#000000;stroke-width:0.8;" x="211.554734" xlink:href="#m69ca0c05f3" y="126"/>
      </g>
     </g>
     <g id="text_6">
      <!-- Oceania -->
      <defs>
       <path d="M 64 34.03125 
C 64 54.734375 50.296875 70.265625 34.59375 70.265625 
C 18.90625 70.265625 5.203125 54.640625 5.203125 34.03125 
C 5.203125 13.234375 19.09375 -2 34.59375 -2 
C 50.09375 -2 64 13.234375 64 34.03125 
z
M 34.59375 4.265625 
C 23.59375 4.265625 13.59375 16.515625 13.59375 35.328125 
C 13.59375 53.640625 24.203125 64 34.59375 64 
C 45 64 55.59375 53.640625 55.59375 35.328125 
C 55.59375 16.421875 45.5 4.265625 34.59375 4.265625 
z
" id="CMSS17-79"/>
       <path d="M 40.90625 29.328125 
C 40.90625 35.671875 39.40625 44 28.09375 44 
C 21.703125 44 17.5 40.71875 14.703125 37.328125 
L 14.703125 43.09375 
L 7.40625 43.09375 
L 7.40625 0 
L 15 0 
L 15 24.359375 
C 15 30.6875 17.40625 37.9375 24.203125 37.9375 
C 33 37.9375 33.296875 32 33.296875 28.578125 
L 33.296875 0 
L 40.90625 0 
z
" id="CMSS17-110"/>
      </defs>
      <g transform="translate(195.718771 150.949358)rotate(-45)scale(0.06 -0.06)">
       <use transform="scale(0.996264)" xlink:href="#CMSS17-79"/>
       <use transform="translate(69.024255 0)scale(0.996264)" xlink:href="#CMSS17-99"/>
       <use transform="translate(110.663077 0)scale(0.996264)" xlink:href="#CMSS17-101"/>
       <use transform="translate(152.301899 0)scale(0.996264)" xlink:href="#CMSS17-97"/>
       <use transform="translate(197.22382 0)scale(0.996264)" xlink:href="#CMSS17-110"/>
       <use transform="translate(245.428763 0)scale(0.996264)" xlink:href="#CMSS17-105"/>
       <use transform="translate(267.609486 0)scale(0.996264)" xlink:href="#CMSS17-97"/>
      </g>
     </g>
    </g>
    <g id="text_7">
     <!-- Continent -->
     <defs>
      <path d="M 54.703125 11.15625 
C 48 6.671875 44.90625 5.375 36.796875 5.375 
C 22.796875 5.375 14.59375 20.359375 14.59375 34.046875 
C 14.59375 48.625 23 63 37.203125 63 
C 43.59375 63 47.796875 61.21875 52.90625 58.046875 
L 54.296875 65.890625 
C 49.5 68.28125 43.40625 69.375 37.296875 69.375 
C 18.09375 69.375 6.203125 51.8125 6.203125 34.046875 
C 6.203125 14.484375 20.296875 -1 36.296875 -1 
C 44.90625 -1 47.90625 -0.296875 55.296875 4.375 
z
" id="CMSS17-67"/>
     </defs>
     <g transform="translate(119.841716 172.720263)scale(0.06 -0.06)">
      <use transform="scale(0.996264)" xlink:href="#CMSS17-67"/>
      <use transform="translate(59.855772 0)scale(0.996264)" xlink:href="#CMSS17-111"/>
      <use transform="translate(106.699395 0)scale(0.996264)" xlink:href="#CMSS17-110"/>
      <use transform="translate(154.904338 0)scale(0.996264)" xlink:href="#CMSS17-116"/>
      <use transform="translate(188.735905 0)scale(0.996264)" xlink:href="#CMSS17-105"/>
      <use transform="translate(210.916628 0)scale(0.996264)" xlink:href="#CMSS17-110"/>
      <use transform="translate(259.121571 0)scale(0.996264)" xlink:href="#CMSS17-101"/>
      <use transform="translate(300.760393 0)scale(0.996264)" xlink:href="#CMSS17-110"/>
      <use transform="translate(348.965336 0)scale(0.996264)" xlink:href="#CMSS17-116"/>
     </g>
    </g>
   </g>
   <g id="matplotlib.axis_2">
    <g id="ytick_1">
     <g id="line2d_7">
      <defs>
       <path d="M 0 0 
L -3.5 0 
" id="m971b1fa5ef" style="stroke:#000000;stroke-width:0.8;"/>
      </defs>
      <g>
       <use style="stroke:#000000;stroke-width:0.8;" x="32.4" xlink:href="#m971b1fa5ef" y="126"/>
      </g>
     </g>
     <g id="text_8">
      <!-- $0$ -->
      <defs>
       <path d="M 42 31.640625 
C 42 37.75 41.90625 48.125 37.703125 56.109375 
C 34 63.109375 28.09375 65.59375 22.90625 65.59375 
C 18.09375 65.59375 12 63.40625 8.203125 56.203125 
C 4.203125 48.71875 3.796875 39.4375 3.796875 31.640625 
C 3.796875 25.953125 3.90625 17.28125 7 9.671875 
C 11.296875 -0.609375 19 -2 22.90625 -2 
C 27.5 -2 34.5 -0.109375 38.59375 9.375 
C 41.59375 16.28125 42 24.359375 42 31.640625 
z
M 22.90625 -0.40625 
C 16.5 -0.40625 12.703125 5.078125 11.296875 12.6875 
C 10.203125 18.5625 10.203125 27.15625 10.203125 32.75 
C 10.203125 40.4375 10.203125 46.828125 11.5 52.921875 
C 13.40625 61.390625 19 64 22.90625 64 
C 27 64 32.296875 61.296875 34.203125 53.125 
C 35.5 47.4375 35.59375 40.734375 35.59375 32.75 
C 35.59375 26.25 35.59375 18.265625 34.40625 12.375 
C 32.296875 1.484375 26.40625 -0.40625 22.90625 -0.40625 
z
" id="CMR17-48"/>
      </defs>
      <g transform="translate(21.747088 128.075545)scale(0.06 -0.06)">
       <use transform="scale(0.996264)" xlink:href="#CMR17-48"/>
      </g>
     </g>
    </g>
    <g id="ytick_2">
     <g id="line2d_8">
      <g>
       <use style="stroke:#000000;stroke-width:0.8;" x="32.4" xlink:href="#m971b1fa5ef" y="107.262657"/>
      </g>
     </g>
     <g id="text_9">
      <!-- $50$ -->
      <defs>
       <path d="M 11.40625 57.6875 
C 12.40625 57.28125 16.5 56 20.703125 56 
C 30 56 35.09375 61.109375 38 64.0625 
C 38 64.953125 38 65.5 37.40625 65.5 
C 37.296875 65.5 37.09375 65.5 36.296875 65.046875 
C 32.796875 63.40625 28.703125 62.078125 23.703125 62.078125 
C 20.703125 62.078125 16.203125 62.484375 11.296875 64.671875 
C 10.203125 65.171875 10 65.171875 9.90625 65.171875 
C 9.40625 65.171875 9.296875 65.0625 9.296875 63.078125 
L 9.296875 34.421875 
C 9.296875 32.640625 9.296875 32.140625 10.296875 32.140625 
C 10.796875 32.140625 11 32.34375 11.5 33.03125 
C 14.703125 37.515625 19.09375 39.40625 24.09375 39.40625 
C 27.59375 39.40625 35.09375 37.21875 35.09375 20.140625 
C 35.09375 16.953125 35.09375 11.171875 32.09375 6.578125 
C 29.59375 2.484375 25.703125 0.390625 21.40625 0.390625 
C 14.796875 0.390625 8.09375 5 6.296875 12.71875 
C 6.703125 12.609375 7.5 12.421875 7.90625 12.421875 
C 9.203125 12.421875 11.703125 13.125 11.703125 16.21875 
C 11.703125 18.90625 9.796875 20 7.90625 20 
C 5.59375 20 4.09375 18.59375 4.09375 15.796875 
C 4.09375 7.09375 11 -2 21.59375 -2 
C 31.90625 -2 41.703125 6.875 41.703125 19.75 
C 41.703125 31.71875 33.90625 41 24.203125 41 
C 19.09375 41 14.796875 39.109375 11.40625 35.53125 
z
" id="CMR17-53"/>
      </defs>
      <g transform="translate(18.094175 109.338202)scale(0.06 -0.06)">
       <use transform="scale(0.996264)" xlink:href="#CMR17-53"/>
       <use transform="translate(45.690477 0)scale(0.996264)" xlink:href="#CMR17-48"/>
      </g>
     </g>
    </g>
    <g id="ytick_3">
     <g id="line2d_9">
      <g>
       <use style="stroke:#000000;stroke-width:0.8;" x="32.4" xlink:href="#m971b1fa5ef" y="88.525314"/>
      </g>
     </g>
     <g id="text_10">
      <!-- $100$ -->
      <defs>
       <path d="M 26.59375 63.40625 
C 26.59375 65.5 26.5 65.5 25.09375 65.5 
C 21.203125 61.1875 15.296875 59.796875 9.703125 59.796875 
C 9.40625 59.796875 8.90625 59.796875 8.796875 59.5 
C 8.703125 59.296875 8.703125 59.09375 8.703125 57 
C 11.796875 57 17 57.59375 21 59.984375 
L 21 7.203125 
C 21 3.6875 20.796875 2.5 12.203125 2.5 
L 9.203125 2.5 
L 9.203125 0 
C 14 0 19 0 23.796875 0 
C 28.59375 0 33.59375 0 38.40625 0 
L 38.40625 2.5 
L 35.40625 2.5 
C 26.796875 2.5 26.59375 3.59375 26.59375 7.15625 
z
" id="CMR17-49"/>
      </defs>
      <g transform="translate(14.441263 90.600859)scale(0.06 -0.06)">
       <use transform="scale(0.996264)" xlink:href="#CMR17-49"/>
       <use transform="translate(45.690477 0)scale(0.996264)" xlink:href="#CMR17-48"/>
       <use transform="translate(91.380954 0)scale(0.996264)" xlink:href="#CMR17-48"/>
      </g>
     </g>
    </g>
    <g id="ytick_4">
     <g id="line2d_10">
      <g>
       <use style="stroke:#000000;stroke-width:0.8;" x="32.4" xlink:href="#m971b1fa5ef" y="69.787971"/>
      </g>
     </g>
     <g id="text_11">
      <!-- $150$ -->
      <g transform="translate(14.441263 71.863515)scale(0.06 -0.06)">
       <use transform="scale(0.996264)" xlink:href="#CMR17-49"/>
       <use transform="translate(45.690477 0)scale(0.996264)" xlink:href="#CMR17-53"/>
       <use transform="translate(91.380954 0)scale(0.996264)" xlink:href="#CMR17-48"/>
      </g>
     </g>
    </g>
    <g id="ytick_5">
     <g id="line2d_11">
      <g>
       <use style="stroke:#000000;stroke-width:0.8;" x="32.4" xlink:href="#m971b1fa5ef" y="51.050627"/>
      </g>
     </g>
     <g id="text_12">
      <!-- $200$ -->
      <defs>
       <path d="M 41.703125 15.453125 
L 39.90625 15.453125 
C 38.90625 8.375 38.09375 7.171875 37.703125 6.5625 
C 37.203125 5.765625 30 5.765625 28.59375 5.765625 
L 9.40625 5.765625 
C 13 9.671875 20 16.75 28.5 24.953125 
C 34.59375 30.734375 41.703125 37.53125 41.703125 47.421875 
C 41.703125 59.21875 32.296875 66 21.796875 66 
C 10.796875 66 4.09375 56.3125 4.09375 47.34375 
C 4.09375 43.4375 7 42.9375 8.203125 42.9375 
C 9.203125 42.9375 12.203125 43.546875 12.203125 47.03125 
C 12.203125 50.109375 9.59375 51 8.203125 51 
C 7.59375 51 7 50.90625 6.59375 50.703125 
C 8.5 59.21875 14.296875 63.40625 20.40625 63.40625 
C 29.09375 63.40625 34.796875 56.515625 34.796875 47.421875 
C 34.796875 38.734375 29.703125 31.25 24 24.75 
L 4.09375 2.28125 
L 4.09375 0 
L 39.296875 0 
z
" id="CMR17-50"/>
      </defs>
      <g transform="translate(14.441263 53.126172)scale(0.06 -0.06)">
       <use transform="scale(0.996264)" xlink:href="#CMR17-50"/>
       <use transform="translate(45.690477 0)scale(0.996264)" xlink:href="#CMR17-48"/>
       <use transform="translate(91.380954 0)scale(0.996264)" xlink:href="#CMR17-48"/>
      </g>
     </g>
    </g>
    <g id="ytick_6">
     <g id="line2d_12">
      <g>
       <use style="stroke:#000000;stroke-width:0.8;" x="32.4" xlink:href="#m971b1fa5ef" y="32.313284"/>
      </g>
     </g>
     <g id="text_13">
      <!-- $250$ -->
      <g transform="translate(14.441263 34.388829)scale(0.06 -0.06)">
       <use transform="scale(0.996264)" xlink:href="#CMR17-50"/>
       <use transform="translate(45.690477 0)scale(0.996264)" xlink:href="#CMR17-53"/>
       <use transform="translate(91.380954 0)scale(0.996264)" xlink:href="#CMR17-48"/>
      </g>
     </g>
    </g>
    <g id="text_14">
     <!-- Number of documents per million inhabitants -->
     <defs>
      <path d="M 14.90625 69 
L 7.5 69 
L 7.5 -0.203125 
L 15.09375 -0.203125 
L 15.09375 4.28125 
C 18.90625 0.59375 23.5 -1 27.59375 -1 
C 37.203125 -1 45 8.578125 45 21.125 
C 45 32.59375 39 43.0625 30.09375 43.0625 
C 23.796875 43.0625 18.203125 40.484375 14.90625 37.796875 
z
M 15.09375 31.96875 
C 17.296875 34.71875 20.40625 37 24.796875 37 
C 30.703125 37 37.40625 32.765625 37.40625 21.125 
C 37.40625 8.71875 29.40625 5.078125 23.90625 5.078125 
C 21.90625 5.078125 19.796875 5.5625 17.796875 7.25 
C 15.09375 9.609375 15.09375 11.078125 15.09375 12.453125 
z
" id="CMSS17-98"/>
      <path d="M 40.796875 69 
L 33.40625 69 
L 33.40625 38.09375 
C 30.296875 40.671875 25.203125 43.0625 19.59375 43.0625 
C 10.5 43.0625 3.296875 33.296875 3.296875 21.046875 
C 3.296875 8.78125 10.40625 -1 19.296875 -1 
C 26.203125 -1 30.796875 2.6875 33.203125 4.78125 
L 33.203125 -0.203125 
L 40.796875 -0.203125 
z
M 33.203125 13.0625 
C 33.203125 11.671875 33.203125 10.203125 30.09375 7.53125 
C 28.09375 5.859375 25.703125 5.078125 23.40625 5.078125 
C 18 5.078125 10.90625 9 10.90625 20.9375 
C 10.90625 33.34375 18.90625 37 24.40625 37 
C 28.09375 37 31.09375 35.21875 33.203125 32.265625 
z
" id="CMSS17-100"/>
      <path d="M 14.796875 69 
L 7.40625 69 
L 7.40625 0 
L 14.796875 0 
z
" id="CMSS17-108"/>
     </defs>
     <g transform="translate(9.278965 132.060981)rotate(-90)scale(0.06 -0.06)">
      <use transform="scale(0.996264)" xlink:href="#CMSS17-78"/>
      <use transform="translate(66.061519 0)scale(0.996264)" xlink:href="#CMSS17-117"/>
      <use transform="translate(114.266462 0)scale(0.996264)" xlink:href="#CMSS17-109"/>
      <use transform="translate(188.495717 0)scale(0.996264)" xlink:href="#CMSS17-98"/>
      <use transform="translate(239.303099 0)scale(0.996264)" xlink:href="#CMSS17-101"/>
      <use transform="translate(280.941921 0)scale(0.996264)" xlink:href="#CMSS17-114"/>
      <use transform="translate(344.080806 0)scale(0.996264)" xlink:href="#CMSS17-111"/>
      <use transform="translate(390.92443 0)scale(0.996264)" xlink:href="#CMSS17-102"/>
      <use transform="translate(450.780201 0)scale(0.996264)" xlink:href="#CMSS17-100"/>
      <use transform="translate(498.985144 0)scale(0.996264)" xlink:href="#CMSS17-111"/>
      <use transform="translate(548.431206 0)scale(0.996264)" xlink:href="#CMSS17-99"/>
      <use transform="translate(590.070029 0)scale(0.996264)" xlink:href="#CMSS17-117"/>
      <use transform="translate(638.274972 0)scale(0.996264)" xlink:href="#CMSS17-109"/>
      <use transform="translate(712.504226 0)scale(0.996264)" xlink:href="#CMSS17-101"/>
      <use transform="translate(754.143048 0)scale(0.996264)" xlink:href="#CMSS17-110"/>
      <use transform="translate(802.347991 0)scale(0.996264)" xlink:href="#CMSS17-116"/>
      <use transform="translate(836.179558 0)scale(0.996264)" xlink:href="#CMSS17-115"/>
      <use transform="translate(903.322213 0)scale(0.996264)" xlink:href="#CMSS17-112"/>
      <use transform="translate(954.129595 0)scale(0.996264)" xlink:href="#CMSS17-101"/>
      <use transform="translate(995.768417 0)scale(0.996264)" xlink:href="#CMSS17-114"/>
      <use transform="translate(1058.907302 0)scale(0.996264)" xlink:href="#CMSS17-109"/>
      <use transform="translate(1133.136556 0)scale(0.996264)" xlink:href="#CMSS17-105"/>
      <use transform="translate(1155.317279 0)scale(0.996264)" xlink:href="#CMSS17-108"/>
      <use transform="translate(1177.498002 0)scale(0.996264)" xlink:href="#CMSS17-108"/>
      <use transform="translate(1199.678726 0)scale(0.996264)" xlink:href="#CMSS17-105"/>
      <use transform="translate(1221.859449 0)scale(0.996264)" xlink:href="#CMSS17-111"/>
      <use transform="translate(1268.703072 0)scale(0.996264)" xlink:href="#CMSS17-110"/>
      <use transform="translate(1348.137128 0)scale(0.996264)" xlink:href="#CMSS17-105"/>
      <use transform="translate(1370.317851 0)scale(0.996264)" xlink:href="#CMSS17-110"/>
      <use transform="translate(1418.522794 0)scale(0.996264)" xlink:href="#CMSS17-104"/>
      <use transform="translate(1466.727737 0)scale(0.996264)" xlink:href="#CMSS17-97"/>
      <use transform="translate(1511.649658 0)scale(0.996264)" xlink:href="#CMSS17-98"/>
      <use transform="translate(1559.854601 0)scale(0.996264)" xlink:href="#CMSS17-105"/>
      <use transform="translate(1582.035324 0)scale(0.996264)" xlink:href="#CMSS17-116"/>
      <use transform="translate(1615.866891 0)scale(0.996264)" xlink:href="#CMSS17-97"/>
      <use transform="translate(1660.788811 0)scale(0.996264)" xlink:href="#CMSS17-110"/>
      <use transform="translate(1708.993754 0)scale(0.996264)" xlink:href="#CMSS17-116"/>
      <use transform="translate(1742.825321 0)scale(0.996264)" xlink:href="#CMSS17-115"/>
     </g>
    </g>
   </g>
   <g id="LineCollection_1">
    <path clip-path="url(#pddb5097b36)" d="M 54.125266 113.652006 
L 54.125266 95.981853 
" style="fill:none;stroke:#000000;stroke-width:1.5;"/>
   </g>
   <g id="LineCollection_2">
    <path clip-path="url(#pddb5097b36)" d="M 85.61116 123.363961 
L 85.61116 119.198054 
" style="fill:none;stroke:#000000;stroke-width:1.5;"/>
   </g>
   <g id="LineCollection_3">
    <path clip-path="url(#pddb5097b36)" d="M 117.097053 120.387194 
L 117.097053 111.612138 
" style="fill:none;stroke:#000000;stroke-width:1.5;"/>
   </g>
   <g id="LineCollection_4">
    <path clip-path="url(#pddb5097b36)" d="M 148.582947 124.679283 
L 148.582947 122.503394 
" style="fill:none;stroke:#000000;stroke-width:1.5;"/>
   </g>
   <g id="LineCollection_5">
    <path clip-path="url(#pddb5097b36)" d="M 180.06884 124.476945 
L 180.06884 122.635287 
" style="fill:none;stroke:#000000;stroke-width:1.5;"/>
   </g>
   <g id="LineCollection_6">
    <path clip-path="url(#pddb5097b36)" d="M 211.554734 84.84972 
L 211.554734 22.457143 
" style="fill:none;stroke:#000000;stroke-width:1.5;"/>
   </g>
   <g id="line2d_13">
    <defs>
     <path d="M 3 0 
L -3 -0 
" id="m13026e593b" style="stroke:#000000;"/>
    </defs>
    <g clip-path="url(#pddb5097b36)">
     <use style="stroke:#000000;" x="54.125266" xlink:href="#m13026e593b" y="113.652006"/>
    </g>
   </g>
   <g id="line2d_14">
    <g clip-path="url(#pddb5097b36)">
     <use style="stroke:#000000;" x="54.125266" xlink:href="#m13026e593b" y="95.981853"/>
    </g>
   </g>
   <g id="line2d_15">
    <g clip-path="url(#pddb5097b36)">
     <use style="stroke:#000000;" x="85.61116" xlink:href="#m13026e593b" y="123.363961"/>
    </g>
   </g>
   <g id="line2d_16">
    <g clip-path="url(#pddb5097b36)">
     <use style="stroke:#000000;" x="85.61116" xlink:href="#m13026e593b" y="119.198054"/>
    </g>
   </g>
   <g id="line2d_17">
    <g clip-path="url(#pddb5097b36)">
     <use style="stroke:#000000;" x="117.097053" xlink:href="#m13026e593b" y="120.387194"/>
    </g>
   </g>
   <g id="line2d_18">
    <g clip-path="url(#pddb5097b36)">
     <use style="stroke:#000000;" x="117.097053" xlink:href="#m13026e593b" y="111.612138"/>
    </g>
   </g>
   <g id="line2d_19">
    <g clip-path="url(#pddb5097b36)">
     <use style="stroke:#000000;" x="148.582947" xlink:href="#m13026e593b" y="124.679283"/>
    </g>
   </g>
   <g id="line2d_20">
    <g clip-path="url(#pddb5097b36)">
     <use style="stroke:#000000;" x="148.582947" xlink:href="#m13026e593b" y="122.503394"/>
    </g>
   </g>
   <g id="line2d_21">
    <g clip-path="url(#pddb5097b36)">
     <use style="stroke:#000000;" x="180.06884" xlink:href="#m13026e593b" y="124.476945"/>
    </g>
   </g>
   <g id="line2d_22">
    <g clip-path="url(#pddb5097b36)">
     <use style="stroke:#000000;" x="180.06884" xlink:href="#m13026e593b" y="122.635287"/>
    </g>
   </g>
   <g id="line2d_23">
    <g clip-path="url(#pddb5097b36)">
     <use style="stroke:#000000;" x="211.554734" xlink:href="#m13026e593b" y="84.84972"/>
    </g>
   </g>
   <g id="line2d_24">
    <g clip-path="url(#pddb5097b36)">
     <use style="stroke:#000000;" x="211.554734" xlink:href="#m13026e593b" y="22.457143"/>
    </g>
   </g>
   <g id="line2d_25">
    <path clip-path="url(#pddb5097b36)" d="M 54.125266 106.482017 
" style="fill:none;stroke:#000000;stroke-linecap:square;stroke-width:1.5;"/>
   </g>
   <g id="line2d_26">
    <path clip-path="url(#pddb5097b36)" d="M 85.61116 121.847252 
" style="fill:none;stroke:#000000;stroke-linecap:square;stroke-width:1.5;"/>
   </g>
   <g id="line2d_27">
    <path clip-path="url(#pddb5097b36)" d="M 117.097053 117.099557 
" style="fill:none;stroke:#000000;stroke-linecap:square;stroke-width:1.5;"/>
   </g>
   <g id="line2d_28">
    <path clip-path="url(#pddb5097b36)" d="M 148.582947 123.830414 
" style="fill:none;stroke:#000000;stroke-linecap:square;stroke-width:1.5;"/>
   </g>
   <g id="line2d_29">
    <path clip-path="url(#pddb5097b36)" d="M 180.06884 123.749013 
" style="fill:none;stroke:#000000;stroke-linecap:square;stroke-width:1.5;"/>
   </g>
   <g id="line2d_30">
    <path clip-path="url(#pddb5097b36)" d="M 211.554734 60.138203 
" style="fill:none;stroke:#000000;stroke-linecap:square;stroke-width:1.5;"/>
   </g>
   <g id="patch_9">
    <path d="M 32.4 126 
L 32.4 17.28 
" style="fill:none;stroke:#000000;stroke-linecap:square;stroke-linejoin:miter;stroke-width:0.8;"/>
   </g>
   <g id="patch_10">
    <path d="M 233.28 126 
L 233.28 17.28 
" style="fill:none;stroke:#000000;stroke-linecap:square;stroke-linejoin:miter;stroke-width:0.8;"/>
   </g>
   <g id="patch_11">
    <path d="M 32.4 126 
L 233.28 126 
" style="fill:none;stroke:#000000;stroke-linecap:square;stroke-linejoin:miter;stroke-width:0.8;"/>
   </g>
   <g id="patch_12">
    <path d="M 32.4 17.28 
L 233.28 17.28 
" style="fill:none;stroke:#000000;stroke-linecap:square;stroke-linejoin:miter;stroke-width:0.8;"/>
   </g>
  </g>
 </g>
 <defs>
  <clipPath id="pddb5097b36">
   <rect height="108.72" width="200.88" x="32.4" y="17.28"/>
  </clipPath>
 </defs>
</svg>
