<?xml version="1.0" encoding="UTF-8" standalone="no"?>
<svg
   xmlns:dc="http://purl.org/dc/elements/1.1/"
   xmlns:cc="http://creativecommons.org/ns#"
   xmlns:rdf="http://www.w3.org/1999/02/22-rdf-syntax-ns#"
   xmlns:svg="http://www.w3.org/2000/svg"
   xmlns="http://www.w3.org/2000/svg"
   xmlns:xlink="http://www.w3.org/1999/xlink"
   xmlns:sodipodi="http://sodipodi.sourceforge.net/DTD/sodipodi-0.dtd"
   xmlns:inkscape="http://www.inkscape.org/namespaces/inkscape"
   height="33.609699pt"
   version="1.1"
   viewBox="0 0 78.087761 33.609699"
   width="78.087761pt"
   id="svg293"
   sodipodi:docname="tp_legend_adjusted.svg"
   inkscape:version="1.0.2 (1.0.2+r75+1)">
  <metadata
     id="metadata297">
    <rdf:RDF>
      <cc:Work
         rdf:about="">
        <dc:format>image/svg+xml</dc:format>
        <dc:type
           rdf:resource="http://purl.org/dc/dcmitype/StillImage" />
        <dc:title></dc:title>
      </cc:Work>
    </rdf:RDF>
  </metadata>
  <sodipodi:namedview
     pagecolor="#ffffff"
     bordercolor="#666666"
     borderopacity="1"
     objecttolerance="10"
     gridtolerance="10"
     guidetolerance="10"
     inkscape:pageopacity="0"
     inkscape:pageshadow="2"
     inkscape:window-width="1920"
     inkscape:window-height="1052"
     id="namedview295"
     showgrid="false"
     inkscape:zoom="6.1724529"
     inkscape:cx="60.390196"
     inkscape:cy="22.755544"
     inkscape:window-x="1920"
     inkscape:window-y="0"
     inkscape:window-maximized="1"
     inkscape:current-layer="patch_6" />
  <defs
     id="defs4">
    <style
       type="text/css"
       id="style2">
*{stroke-linecap:butt;stroke-linejoin:round;}
  </style>
    <defs
       id="defs165">
      <path
         d="M 44.203125,21.1875 C 44.203125,34 34.703125,44 23.5,44 12,44 2.703125,33.703125 2.703125,21.1875 2.703125,8.5 12.296875,-1 23.40625,-1 34.796875,-1 44.203125,8.796875 44.203125,21.1875 Z M 23.5,5.265625 c -7.09375,0 -13.203125,5.8125 -13.203125,16.734375 0,11.609375 7.109375,15.921875 13.109375,15.921875 6.5,0 13.1875,-4.703125 13.1875,-15.921875 0,-11.328125 -6.5,-16.734375 -13.09375,-16.734375 z"
         id="CMSS17-111" />
    </defs>
    <defs
       id="defs29">
      <path
         d="m 61.296875,71.609375 c 0.609375,1 0.609375,1.5 0.609375,1.59375 C 61.90625,74.296875 61,75 60.203125,75 59.09375,75 58.59375,74.203125 58.09375,73.203125 L 17.203125,-1.625 C 17,-2.015625 16.59375,-2.609375 16.59375,-3.21875 16.59375,-4.3125 17.5,-5 18.40625,-5 c 0.890625,0 1.09375,0.390625 1.890625,1.78125 z m 11.796875,-56.625 C 73.09375,26.53125 66.90625,35 60.09375,35 53.40625,35 47,26.734375 47,14.984375 47,3.25 53.40625,-5 60.09375,-5 c 6.90625,0 13,8.453125 13,19.984375 z m -13,-13.921875 c -2.09375,0 -5.5,1.890625 -5.5,13.921875 0,11.953125 3.40625,13.9375 5.5,13.9375 3.703125,0 5.703125,-7.265625 5.703125,-13.9375 0,-6.65625 -2,-13.921875 -5.703125,-13.921875 z M 31.296875,54.984375 C 31.296875,66.53125 25.09375,75 18.296875,75 11.59375,75 5.203125,66.734375 5.203125,54.984375 5.203125,43.25 11.59375,35 18.296875,35 c 6.90625,0 13,8.453125 13,19.984375 z m -13,-13.921875 c -2.09375,0 -5.5,1.890625 -5.5,13.921875 0,11.953125 3.40625,13.9375 5.5,13.9375 C 22,68.921875 24,61.65625 24,54.984375 24,48.328125 22,41.0625 18.296875,41.0625 Z"
         id="CMSS17-37" />
      <path
         d="m 38.5,39.703125 c 0,0.6875 -4.59375,2.703125 -5.796875,3.09375 C 29.40625,44 25.203125,44 24.09375,44 11.09375,44 3.296875,32.703125 3.296875,21.296875 3.296875,9.296875 12,-1 23.703125,-1 c 6.703125,0 11.5,2.1875 15.390625,4.78125 L 38.5,10.375 C 34.203125,7.078125 29.203125,5.265625 23.796875,5.265625 16,5.265625 10.90625,12.09375 10.90625,21.390625 c 0,7.21875 3.296875,16.328125 13.296875,16.328125 5.5,0 8.59375,-1.109375 13.203125,-4.203125 z"
         id="CMSS17-99" />
      <path
         d="m 39.09375,21.515625 c 0,3.328125 -0.1875,9.78125 -3.390625,15.125 C 32.203125,42.390625 26.5,44 22.203125,44 11.796875,44 3,34.1875 3,21.484375 3,9.09375 12.09375,-1 23.59375,-1 c 4.5,0 10,1.296875 15,4.875 0,0.40625 -0.1875,2.59375 -0.296875,2.6875 C 38.296875,6.765625 38,9.84375 38,10.25 33.203125,6.359375 27.703125,5.078125 23.703125,5.078125 c -6.40625,0 -13.296875,5.34375 -13.609375,16.4375 z M 10.90625,27 c 1.296875,5.5625 5.6875,10.828125 11.296875,10.828125 1.5,0 8.5,0 10.296875,-10.828125 z"
         id="CMSS17-101" />
      <path
         d="M 14.796875,69 H 7.40625 V 0 h 7.390625 z"
         id="CMSS17-108" />
      <path
         d="m 32.203125,41.046875 c -5.90625,2.8125 -10.5,2.8125 -13.5,2.8125 -7.109375,0 -15.609375,-2.484375 -15.609375,-12.5625 0,-10.0625 11,-12.265625 14,-12.875 4.609375,-0.890625 9.703125,-1.890625 9.703125,-6.859375 0,-6.296875 -7.203125,-6.296875 -8.5,-6.296875 -4,0 -9.5,1.09375 -14.5,4.703125 L 2.59375,3.28125 C 8.296875,0 13.796875,-1 18.40625,-1 c 12.296875,0 15.390625,7.5 15.390625,13.203125 0,4.890625 -2.796875,8.1875 -4.703125,9.6875 C 25.796875,24.5 24.59375,24.796875 16.40625,26.5 15,26.703125 10.09375,27.796875 10.09375,32.28125 10.09375,38 16.40625,38 17.796875,38 c 6.5,0 10.5,-2.015625 13.203125,-3.5 z"
         id="CMSS17-115" />
      <path
         d="M 62.703125,43 H 55.09375 L 49.796875,25.015625 C 48.703125,21.21875 45.59375,10.703125 45.203125,5.796875 H 45.09375 C 44.90625,8.8125 43.203125,16 40.40625,25.515625 L 35.296875,43 H 28.40625 l -5,-17.09375 C 20.90625,17.203125 19,9.796875 18.796875,5.796875 h -0.09375 c -0.40625,5.90625 -4.5,19.71875 -5.109375,21.90625 L 9.09375,43 H 1.296875 l 13,-43 h 7.609375 c 5.1875,17.125 9.1875,30.359375 9.5,37.03125 C 31.59375,33.75 33.296875,26.671875 34.296875,23.1875 L 40.90625,0 h 8.796875 z"
         id="CMSS17-119" />
      <path
         d="M 15.296875,65.359375 H 6.90625 V 57 h 8.390625 z m -0.5,-22.5625 H 7.40625 V 0 h 7.390625 z"
         id="CMSS17-105" />
      <path
         d="m 16.703125,37 h 13 v 5.765625 h -13 V 55 H 9.59375 V 42.765625 H 1.703125 V 37 H 9.40625 V 11.703125 C 9.40625,6 10.703125,-1 17.296875,-1 c 5,0 9.609375,1.390625 14,3.6875 l -1.59375,5.875 c -2.40625,-2.09375 -5.296875,-3.296875 -8.40625,-3.296875 -4.390625,0 -4.59375,5.609375 -4.59375,8.109375 z"
         id="CMSS17-116" />
      <path
         d="m 40.90625,29.546875 c 0,6.265625 -1.5,14.515625 -12.8125,14.515625 -6.296875,0 -10.390625,-3.078125 -13.296875,-6.453125 V 69.5 H 7.40625 V 0.5 H 15 V 24.578125 C 15,30.828125 17.40625,38 24.203125,38 33,38 33.296875,32.125 33.296875,28.734375 V 0.5 h 7.609375 z"
         id="CMSS17-104" />
      <path
         d="M 37.59375,27.984375 C 37.59375,37.375 30.90625,43.875 21.90625,43.875 17.5,43.875 12.703125,43.078125 7.203125,39.890625 l 0.59375,-6.53125 C 10.296875,35.125 14.59375,38 21.796875,38 26.90625,38 30,34.0625 30,27.84375 V 24 C 14,24 4,19.34375 4,11.34375 4,7.203125 6.5,-1 14.796875,-1 c 1.5,0 9.609375,0 15.40625,4.390625 v -3.6875 H 37.59375 Z M 30,12.75 C 30,10.953125 30,8.5625 27,6.78125 24.40625,5.078125 21.09375,5.078125 19.703125,5.078125 c -5,0 -8.40625,2.90625 -8.40625,6.546875 0,7.296875 15.609375,7.296875 18.703125,7.296875 z"
         id="CMSS17-97" />
      <path
         d="M 14.90625,21.296875 C 14.90625,30.703125 21.796875,37 30.59375,37 v 6.578125 c -6.390625,0 -12.390625,-3.1875 -16,-8.375 V 43.09375 H 7.5 V 0 h 7.40625 z"
         id="CMSS17-114" />
      <path
         d="M 14.90625,69 H 7.5 V -0.203125 h 7.59375 V 4.28125 C 18.90625,0.59375 23.5,-1 27.59375,-1 37.203125,-1 45,8.578125 45,21.125 c 0,11.46875 -6,21.9375 -14.90625,21.9375 -6.296875,0 -11.890625,-2.578125 -15.1875,-5.265625 z m 0.1875,-37.03125 c 2.203125,2.75 5.3125,5.03125 9.703125,5.03125 5.90625,0 12.609375,-4.234375 12.609375,-15.875 0,-12.40625 -8,-16.046875 -13.5,-16.046875 -2,0 -4.109375,0.484375 -6.109375,2.171875 -2.703125,2.359375 -2.703125,3.828125 -2.703125,5.203125 z"
         id="CMSS17-98" />
      <path
         d="M 40.90625,42.796875 H 33.296875 V 15.1875 C 33.296875,7.78125 27.90625,4.78125 22.203125,4.78125 15.59375,4.78125 15,6.984375 15,11.078125 v 31.71875 H 7.40625 V 10.59375 C 7.40625,2.796875 10.09375,-1 17,-1 c 3.40625,0 11.09375,0.796875 16.5,5.78125 V 0 h 7.40625 z"
         id="CMSS17-117" />
      <path
         d="M 67,29.328125 C 67,36.0625 65.296875,44 54.09375,44 c -7.5,0 -12,-4.6875 -14,-7.578125 C 38.296875,41.71875 34.09375,44 28.09375,44 21.296875,44 17,40.125 14.703125,37.328125 V 43.09375 H 7.40625 V 0 H 15 v 24.359375 c 0,5.9375 2.203125,13.578125 9.296875,13.578125 9.109375,0 9.109375,-6.4375 9.109375,-9.359375 V 0 H 41 v 24.359375 c 0,5.9375 2.203125,13.578125 9.296875,13.578125 9.109375,0 9.109375,-6.4375 9.109375,-9.359375 V 0 H 67 Z"
         id="CMSS17-109" />
      <path
         d="m 15.09375,5.203125 c 3.3125,-3.1875 7.8125,-5.28125 12.609375,-5.28125 C 37,-0.078125 45,9.421875 45,22.0625 45,33.734375 39,44 30.40625,44 c -5,0 -11,-1.78125 -15.5,-5.375 v 4.578125 H 7.5 V -19 h 7.59375 z m 0,27.609375 c 0.8125,1.1875 4.203125,4.921875 9.703125,4.921875 7,0 12.609375,-7.109375 12.609375,-15.671875 0,-9.765625 -6.8125,-16.0625 -13.5,-16.0625 -2,0 -4.109375,0.484375 -6.109375,2.171875 C 15.09375,10.53125 15.09375,12 15.09375,13.390625 Z"
         id="CMSS17-112" />
      <path
         d="M 40.90625,29.328125 C 40.90625,35.671875 39.40625,44 28.09375,44 21.703125,44 17.5,40.71875 14.703125,37.328125 V 43.09375 H 7.40625 V 0 H 15 V 24.359375 C 15,30.6875 17.40625,37.9375 24.203125,37.9375 33,37.9375 33.296875,32 33.296875,28.578125 V 0 h 7.609375 z"
         id="CMSS17-110" />
      <path
         d="M 40.796875,69 H 33.40625 V 38.09375 C 30.296875,40.671875 25.203125,43.0625 19.59375,43.0625 10.5,43.0625 3.296875,33.296875 3.296875,21.046875 3.296875,8.78125 10.40625,-1 19.296875,-1 c 6.90625,0 11.5,3.6875 13.90625,5.78125 v -4.984375 h 7.59375 z m -7.59375,-55.9375 c 0,-1.390625 0,-2.859375 -3.109375,-5.53125 -2,-1.671875 -4.390625,-2.453125 -6.6875,-2.453125 -5.40625,0 -12.5,3.921875 -12.5,15.859375 0,12.40625 8,16.0625 13.5,16.0625 3.6875,0 6.6875,-1.78125 8.796875,-4.734375 z"
         id="CMSS17-100" />
    </defs>
    <defs
       id="defs114">
      <path
         d="m 43.09375,31.9375 c 0,5.640625 -0.09375,16.140625 -4.1875,24.25 C 34.796875,64 28.203125,66.078125 23.5,66.078125 16.703125,66.078125 10.90625,62.109375 7.90625,55.78125 4.703125,49.15625 3.796875,42.328125 3.796875,31.9375 3.796875,24.828125 4.09375,16.109375 7.703125,8.484375 11.796875,0.078125 18.703125,-2 23.40625,-2 29.59375,-2 35.59375,1.265625 39,8.09375 c 3.5,7.125 4.09375,14.9375 4.09375,23.84375 z M 23.40625,4.078125 c -7.609375,0 -9.90625,8.59375 -10.609375,11.46875 -1.203125,4.921875 -1.390625,9.671875 -1.390625,17.484375 0,6.125 0,13.03125 1.890625,18.484375 C 15.59375,57.828125 19.59375,60 23.40625,60 30.796875,60 33.203125,52.6875 34,50.125 c 1.5,-5.234375 1.5,-11.359375 1.5,-17.09375 0,-9.1875 0,-28.953125 -12.09375,-28.953125 z"
         id="CMSS17-48" />
    </defs>
    <defs
       id="defs128">
      <path
         d="m 26,19 v 5.765625 H 1 V 19 Z"
         id="CMSS17-45" />
      <path
         d="m 14.59375,58.625 h 24.5 V 65 H 7.296875 V 27.828125 H 14 C 15.796875,31.96875 19.5,35 24.296875,35 c 4.5,0 9.5,-3.921875 9.5,-15.21875 C 33.796875,7.703125 26.703125,4.171875 21.5,4.171875 15.09375,4.171875 9.203125,8 6.59375,13.296875 l -3.1875,-5.5 C 8,0.765625 15.5,-2 21.5,-2 c 11.59375,0 20.703125,9.765625 20.703125,21.578125 0,12.140625 -8.109375,21.5 -17.796875,21.5 -3.5,0 -6.90625,-1.1875 -9.8125,-3.59375 z"
         id="CMSS17-53" />
    </defs>
    <defs
       id="defs147">
      <path
         d="m 65.90625,22.640625 c 1.890625,0.90625 2,1.5 2,2.203125 0,0.59375 -0.203125,1.296875 -2,2.109375 L 11.796875,51.90625 C 10.5,52.5 10.296875,52.5 10.09375,52.5 8.90625,52.5 8.203125,51.5 8.203125,50.703125 8.203125,49.5 9,49.09375 10.296875,48.5 l 51.40625,-23.65625 -51.5,-23.828125 c -2,-0.921875 -2,-1.625 -2,-2.21875 C 8.203125,-2 8.90625,-3 10.09375,-3 c 0.203125,0 0.3125,0.109375 1.703125,0.703125 z"
         id="CMMI12-62" />
    </defs>
  </defs>
  <g
     id="patch_6"
     transform="translate(-254.37999,-197.14632)">
    <path
       d="m 255.88,230.256 74.59282,-0.32938 c 0.66667,-0.003 1.26825,-0.924 1.27334,-1.59064 l 0.22155,-29.01486 c 0.005,-0.66665 -0.48908,-1.59893 -1.15572,-1.5996 l -74.21284,-0.0748 c -0.66667,-6.7e-4 -1.56838,0.01 -1.64367,1.17398 L 254.88,229.256 c -0.002,0.66666 0.33334,1.00294 1,1 z"
       style="opacity:0.8;fill:#ffffff;stroke:#cccccc;stroke-linejoin:miter"
       id="path161"
       sodipodi:nodetypes="sssssscss" />
  </g>
  <path
     d="m 33.494161,19.374594 h 10 v -3.5 h -10 z"
     style="fill:#fcbba1;stroke:#000000;stroke-width:0.5;stroke-linejoin:miter"
     id="path110" />
  <path
     d="m 48.885481,19.458664 h 10 v -3.5 h -10 z"
     style="fill:#fb694a;stroke:#000000;stroke-width:0.5;stroke-linejoin:miter"
     id="path123" />
  <path
     d="m 63.856061,19.391594 h 10 v -3.5 h -10 z"
     style="fill:#ca181d;stroke:#000000;stroke-width:0.5;stroke-linejoin:miter"
     id="path143" />
  <use
     transform="matrix(0.05977584,0,0,-0.05977584,4.153051,6.8442645)"
     xlink:href="#CMSS17-37"
     id="use167"
     x="0"
     y="0"
     width="100%"
     height="100%" />
  <use
     transform="matrix(0.05977584,0,0,-0.05977584,10.711161,6.8442645)"
     xlink:href="#CMSS17-99"
     id="use169"
     x="0"
     y="0"
     width="100%"
     height="100%" />
  <use
     transform="matrix(0.05977584,0,0,-0.05977584,13.209491,6.8442645)"
     xlink:href="#CMSS17-101"
     id="use171"
     x="0"
     y="0"
     width="100%"
     height="100%" />
  <use
     transform="matrix(0.05977584,0,0,-0.05977584,15.707821,6.8442645)"
     xlink:href="#CMSS17-108"
     id="use173"
     x="0"
     y="0"
     width="100%"
     height="100%" />
  <use
     transform="matrix(0.05977584,0,0,-0.05977584,17.038661,6.8442645)"
     xlink:href="#CMSS17-108"
     id="use175"
     x="0"
     y="0"
     width="100%"
     height="100%" />
  <use
     transform="matrix(0.05977584,0,0,-0.05977584,18.369511,6.8442645)"
     xlink:href="#CMSS17-115"
     id="use177"
     x="0"
     y="0"
     width="100%"
     height="100%" />
  <use
     transform="matrix(0.05977584,0,0,-0.05977584,22.398071,6.8442645)"
     xlink:href="#CMSS17-119"
     id="use179"
     x="0"
     y="0"
     width="100%"
     height="100%" />
  <use
     transform="matrix(0.05977584,0,0,-0.05977584,26.227241,6.8442645)"
     xlink:href="#CMSS17-105"
     id="use181"
     x="0"
     y="0"
     width="100%"
     height="100%" />
  <use
     transform="matrix(0.05977584,0,0,-0.05977584,27.558081,6.8442645)"
     xlink:href="#CMSS17-116"
     id="use183"
     x="0"
     y="0"
     width="100%"
     height="100%" />
  <use
     transform="matrix(0.05977584,0,0,-0.05977584,29.587981,6.8442645)"
     xlink:href="#CMSS17-104"
     id="use185"
     x="0"
     y="0"
     width="100%"
     height="100%" />
  <use
     transform="matrix(0.05977584,0,0,-0.05977584,34.354021,6.8442645)"
     xlink:href="#CMSS17-97"
     id="use187"
     x="0"
     y="0"
     width="100%"
     height="100%" />
  <use
     transform="matrix(0.05977584,0,0,-0.05977584,37.049331,6.8442645)"
     xlink:href="#CMSS17-116"
     id="use189"
     x="0"
     y="0"
     width="100%"
     height="100%" />
  <use
     transform="matrix(0.05977584,0,0,-0.05977584,39.079231,6.8442645)"
     xlink:href="#CMSS17-116"
     id="use191"
     x="0"
     y="0"
     width="100%"
     height="100%" />
  <use
     transform="matrix(0.05977584,0,0,-0.05977584,41.109121,6.8442645)"
     xlink:href="#CMSS17-114"
     id="use193"
     x="0"
     y="0"
     width="100%"
     height="100%" />
  <use
     transform="matrix(0.05977584,0,0,-0.05977584,43.023711,6.8442645)"
     xlink:href="#CMSS17-105"
     id="use195"
     x="0"
     y="0"
     width="100%"
     height="100%" />
  <use
     transform="matrix(0.05977584,0,0,-0.05977584,44.354551,6.8442645)"
     xlink:href="#CMSS17-98"
     id="use197"
     x="0"
     y="0"
     width="100%"
     height="100%" />
  <use
     transform="matrix(0.05977584,0,0,-0.05977584,47.246851,6.8442645)"
     xlink:href="#CMSS17-117"
     id="use199"
     x="0"
     y="0"
     width="100%"
     height="100%" />
  <use
     transform="matrix(0.05977584,0,0,-0.05977584,50.139151,6.8442645)"
     xlink:href="#CMSS17-116"
     id="use201"
     x="0"
     y="0"
     width="100%"
     height="100%" />
  <use
     transform="matrix(0.05977584,0,0,-0.05977584,52.169041,6.8442645)"
     xlink:href="#CMSS17-97"
     id="use203"
     x="0"
     y="0"
     width="100%"
     height="100%" />
  <use
     transform="matrix(0.05977584,0,0,-0.05977584,54.864351,6.8442645)"
     xlink:href="#CMSS17-98"
     id="use205"
     x="0"
     y="0"
     width="100%"
     height="100%" />
  <use
     transform="matrix(0.05977584,0,0,-0.05977584,57.756651,6.8442645)"
     xlink:href="#CMSS17-108"
     id="use207"
     x="0"
     y="0"
     width="100%"
     height="100%" />
  <use
     transform="matrix(0.05977584,0,0,-0.05977584,59.087491,6.8442645)"
     xlink:href="#CMSS17-101"
     id="use209"
     x="0"
     y="0"
     width="100%"
     height="100%" />
  <use
     transform="matrix(0.05977584,0,0,-0.05977584,2.390451,26.666054)"
     xlink:href="#CMSS17-112"
     id="use211"
     x="0"
     y="0"
     width="100%"
     height="100%" />
  <use
     transform="matrix(0.05977584,0,0,-0.05977584,5.126601,26.666054)"
     xlink:href="#CMSS17-114"
     id="use213"
     x="0"
     y="0"
     width="100%"
     height="100%" />
  <use
     transform="matrix(0.05977584,0,0,-0.05977584,7.041191,26.666054)"
     xlink:href="#CMSS17-101"
     id="use215"
     x="0"
     y="0"
     width="100%"
     height="100%" />
  <use
     transform="matrix(0.05977584,0,0,-0.05977584,9.539521,26.666054)"
     xlink:href="#CMSS17-99"
     id="use217"
     x="0"
     y="0"
     width="100%"
     height="100%" />
  <use
     transform="matrix(0.05977584,0,0,-0.05977584,12.037841,26.666054)"
     xlink:href="#CMSS17-105"
     id="use219"
     x="0"
     y="0"
     width="100%"
     height="100%" />
  <use
     transform="matrix(0.05977584,0,0,-0.05977584,13.368691,26.666054)"
     xlink:href="#CMSS17-112"
     id="use221"
     x="0"
     y="0"
     width="100%"
     height="100%" />
  <use
     transform="matrix(0.05977584,0,0,-0.05977584,16.260991,26.666054)"
     xlink:href="#CMSS17-105"
     id="use223"
     x="0"
     y="0"
     width="100%"
     height="100%" />
  <use
     transform="matrix(0.05977584,0,0,-0.05977584,17.591831,26.666054)"
     xlink:href="#CMSS17-116"
     id="use225"
     x="0"
     y="0"
     width="100%"
     height="100%" />
  <use
     transform="matrix(0.05977584,0,0,-0.05977584,19.621721,26.666054)"
     xlink:href="#CMSS17-97"
     id="use227"
     x="0"
     y="0"
     width="100%"
     height="100%" />
  <use
     transform="matrix(0.05977584,0,0,-0.05977584,22.317041,26.666054)"
     xlink:href="#CMSS17-116"
     id="use229"
     x="0"
     y="0"
     width="100%"
     height="100%" />
  <use
     transform="matrix(0.05977584,0,0,-0.05977584,24.346931,26.666054)"
     xlink:href="#CMSS17-105"
     id="use231"
     x="0"
     y="0"
     width="100%"
     height="100%" />
  <use
     transform="matrix(0.05977584,0,0,-0.05977584,25.677781,26.666054)"
     xlink:href="#CMSS17-111"
     id="use233"
     x="0"
     y="0"
     width="100%"
     height="100%" />
  <use
     transform="matrix(0.05977584,0,0,-0.05977584,28.488391,26.666054)"
     xlink:href="#CMSS17-110"
     id="use235"
     x="0"
     y="0"
     width="100%"
     height="100%" />
  <use
     transform="matrix(0.05977584,0,0,-0.05977584,63.230381,6.8442645)"
     xlink:href="#CMSS17-116"
     id="use237"
     x="0"
     y="0"
     width="100%"
     height="100%" />
  <use
     transform="matrix(0.05977584,0,0,-0.05977584,65.260271,6.8442645)"
     xlink:href="#CMSS17-114"
     id="use239"
     x="0"
     y="0"
     width="100%"
     height="100%" />
  <use
     transform="matrix(0.05977584,0,0,-0.05977584,67.174861,6.8442645)"
     xlink:href="#CMSS17-101"
     id="use241"
     x="0"
     y="0"
     width="100%"
     height="100%" />
  <use
     transform="matrix(0.05977584,0,0,-0.05977584,69.673181,6.8442645)"
     xlink:href="#CMSS17-110"
     id="use243"
     x="0"
     y="0"
     width="100%"
     height="100%" />
  <use
     transform="matrix(0.05977584,0,0,-0.05977584,72.565481,6.8442645)"
     xlink:href="#CMSS17-100"
     id="use245"
     x="0"
     y="0"
     width="100%"
     height="100%" />
  <g
     id="patch_7"
     transform="translate(-232.12048,-200.15888)">
    <path
       d="m 265.71336,227.28742 h 10 v -3.5 h -10 z"
       style="fill:#c7e9c0;stroke:#000000;stroke-width:0.5;stroke-linejoin:miter"
       id="path250" />
  </g>
  <g
     id="text_6"
     transform="translate(-244.61146,-213.48808)">
    <!-- 0\% -->
    <g
       transform="matrix(0.05,0,0,-0.05,279.71336,227.28742)"
       id="g257">
      <use
         transform="scale(0.996264)"
         xlink:href="#CMSS17-48"
         id="use253"
         x="0"
         y="0"
         width="100%"
         height="100%" />
      <use
         transform="matrix(0.996264,0,0,0.996264,46.843624,0)"
         xlink:href="#CMSS17-37"
         id="use255"
         x="0"
         y="0"
         width="100%"
         height="100%" />
    </g>
  </g>
  <g
     id="patch_8"
     transform="translate(-247.88171,-200.11684)">
    <path
       d="m 296.77032,227.28742 h 10 v -3.5 h -10 z"
       style="fill:#73c476;stroke:#000000;stroke-width:0.5;stroke-linejoin:miter"
       id="path260" />
  </g>
  <g
     id="text_7"
     transform="translate(-262.53737,-213.54825)">
    <!-- 0-50\% -->
    <g
       transform="matrix(0.05,0,0,-0.05,310.77032,227.28742)"
       id="g273">
      <use
         transform="scale(0.996264)"
         xlink:href="#CMSS17-48"
         id="use263"
         x="0"
         y="0"
         width="100%"
         height="100%" />
      <use
         transform="matrix(0.996264,0,0,0.996264,46.843624,0)"
         xlink:href="#CMSS17-45"
         id="use265"
         x="0"
         y="0"
         width="100%"
         height="100%" />
      <use
         transform="matrix(0.996264,0,0,0.996264,78.072736,0)"
         xlink:href="#CMSS17-53"
         id="use267"
         x="0"
         y="0"
         width="100%"
         height="100%" />
      <use
         transform="matrix(0.996264,0,0,0.996264,124.91636,0)"
         xlink:href="#CMSS17-48"
         id="use269"
         x="0"
         y="0"
         width="100%"
         height="100%" />
      <use
         transform="matrix(0.996264,0,0,0.996264,171.75998,0)"
         xlink:href="#CMSS17-37"
         id="use271"
         x="0"
         y="0"
         width="100%"
         height="100%" />
    </g>
  </g>
  <g
     id="patch_9"
     transform="translate(-270.98712,-200.14739)">
    <path
       d="m 334.88423,227.28742 h 10 v -3.5 h -10 z"
       style="fill:#228a44;stroke:#000000;stroke-width:0.5;stroke-linejoin:miter"
       id="path276" />
  </g>
  <g
     id="text_8"
     transform="translate(-285.42682,-213.48046)">
    <!-- \textgreater50\% -->
    <g
       transform="matrix(0.05,0,0,-0.05,348.88423,227.28742)"
       id="g287">
      <use
         transform="scale(0.996264)"
         xlink:href="#CMMI12-62"
         id="use279"
         x="0"
         y="0"
         width="100%"
         height="100%" />
      <use
         transform="matrix(0.996264,0,0,0.996264,75.872096,0)"
         xlink:href="#CMSS17-53"
         id="use281"
         x="0"
         y="0"
         width="100%"
         height="100%" />
      <use
         transform="matrix(0.996264,0,0,0.996264,122.71572,0)"
         xlink:href="#CMSS17-48"
         id="use283"
         x="0"
         y="0"
         width="100%"
         height="100%" />
      <use
         transform="matrix(0.996264,0,0,0.996264,169.55934,0)"
         xlink:href="#CMSS17-37"
         id="use285"
         x="0"
         y="0"
         width="100%"
         height="100%" />
    </g>
  </g>
  <use
     transform="matrix(0.05977584,0,0,-0.05977584,2.581301,18.783794)"
     xlink:href="#CMSS17-116"
     id="use75"
     x="0"
     y="0"
     width="100%"
     height="100%" />
  <use
     transform="matrix(0.05977584,0,0,-0.05977584,4.611201,18.783794)"
     xlink:href="#CMSS17-101"
     id="use77"
     x="0"
     y="0"
     width="100%"
     height="100%" />
  <use
     transform="matrix(0.05977584,0,0,-0.05977584,7.109521,18.783794)"
     xlink:href="#CMSS17-109"
     id="use79"
     x="0"
     y="0"
     width="100%"
     height="100%" />
  <use
     transform="matrix(0.05977584,0,0,-0.05977584,11.563281,18.783794)"
     xlink:href="#CMSS17-112"
     id="use81"
     x="0"
     y="0"
     width="100%"
     height="100%" />
  <use
     transform="matrix(0.05977584,0,0,-0.05977584,14.611721,18.783794)"
     xlink:href="#CMSS17-101"
     id="use83"
     x="0"
     y="0"
     width="100%"
     height="100%" />
  <use
     transform="matrix(0.05977584,0,0,-0.05977584,17.110051,18.783794)"
     xlink:href="#CMSS17-114"
     id="use85"
     x="0"
     y="0"
     width="100%"
     height="100%" />
  <use
     transform="matrix(0.05977584,0,0,-0.05977584,19.024641,18.783794)"
     xlink:href="#CMSS17-97"
     id="use87"
     x="0"
     y="0"
     width="100%"
     height="100%" />
  <use
     transform="matrix(0.05977584,0,0,-0.05977584,21.719951,18.783794)"
     xlink:href="#CMSS17-116"
     id="use89"
     x="0"
     y="0"
     width="100%"
     height="100%" />
  <use
     transform="matrix(0.05977584,0,0,-0.05977584,23.749851,18.783794)"
     xlink:href="#CMSS17-117"
     id="use91"
     x="0"
     y="0"
     width="100%"
     height="100%" />
  <use
     transform="matrix(0.05977584,0,0,-0.05977584,26.642151,18.783794)"
     xlink:href="#CMSS17-114"
     id="use93"
     x="0"
     y="0"
     width="100%"
     height="100%" />
  <use
     transform="matrix(0.05977584,0,0,-0.05977584,28.556731,18.783794)"
     xlink:href="#CMSS17-101"
     id="use95"
     x="0"
     y="0"
     width="100%"
     height="100%" />
</svg>
