<?xml version="1.0" encoding="utf-8" standalone="no"?>
<!DOCTYPE svg PUBLIC "-//W3C//DTD SVG 1.1//EN"
  "http://www.w3.org/Graphics/SVG/1.1/DTD/svg11.dtd">
<!-- Created with matplotlib (https://matplotlib.org/) -->
<svg height="288pt" version="1.1" viewBox="0 0 432 288" width="432pt" xmlns="http://www.w3.org/2000/svg" xmlns:xlink="http://www.w3.org/1999/xlink">
 <defs>
  <style type="text/css">
*{stroke-linecap:butt;stroke-linejoin:round;}
  </style>
 </defs>
 <g id="figure_1">
  <g id="patch_1">
   <path d="M 0 288 
L 432 288 
L 432 0 
L 0 0 
z
" style="fill:#ffffff;"/>
  </g>
  <g id="axes_1">
   <g id="legend_1">
    <g id="patch_2">
     <path d="M 88.48 230.256 
L 205.80513 230.256 
Q 206.80513 230.256 206.80513 229.256 
L 206.80513 214.641933 
Q 206.80513 213.641933 205.80513 213.641933 
L 88.48 213.641933 
Q 87.48 213.641933 87.48 214.641933 
L 87.48 229.256 
Q 87.48 230.256 88.48 230.256 
z
" style="fill:#ffffff;opacity:0.8;stroke:#cccccc;stroke-linejoin:miter;"/>
    </g>
    <g id="text_1">
     <!-- \% cells with attributable temperature trend -->
     <defs>
      <path d="M 61.296875 71.609375 
C 61.90625 72.609375 61.90625 73.109375 61.90625 73.203125 
C 61.90625 74.296875 61 75 60.203125 75 
C 59.09375 75 58.59375 74.203125 58.09375 73.203125 
L 17.203125 -1.625 
C 17 -2.015625 16.59375 -2.609375 16.59375 -3.21875 
C 16.59375 -4.3125 17.5 -5 18.40625 -5 
C 19.296875 -5 19.5 -4.609375 20.296875 -3.21875 
z
M 73.09375 14.984375 
C 73.09375 26.53125 66.90625 35 60.09375 35 
C 53.40625 35 47 26.734375 47 14.984375 
C 47 3.25 53.40625 -5 60.09375 -5 
C 67 -5 73.09375 3.453125 73.09375 14.984375 
z
M 60.09375 1.0625 
C 58 1.0625 54.59375 2.953125 54.59375 14.984375 
C 54.59375 26.9375 58 28.921875 60.09375 28.921875 
C 63.796875 28.921875 65.796875 21.65625 65.796875 14.984375 
C 65.796875 8.328125 63.796875 1.0625 60.09375 1.0625 
z
M 31.296875 54.984375 
C 31.296875 66.53125 25.09375 75 18.296875 75 
C 11.59375 75 5.203125 66.734375 5.203125 54.984375 
C 5.203125 43.25 11.59375 35 18.296875 35 
C 25.203125 35 31.296875 43.453125 31.296875 54.984375 
z
M 18.296875 41.0625 
C 16.203125 41.0625 12.796875 42.953125 12.796875 54.984375 
C 12.796875 66.9375 16.203125 68.921875 18.296875 68.921875 
C 22 68.921875 24 61.65625 24 54.984375 
C 24 48.328125 22 41.0625 18.296875 41.0625 
z
" id="CMSS17-37"/>
      <path d="M 38.5 39.703125 
C 38.5 40.390625 33.90625 42.40625 32.703125 42.796875 
C 29.40625 44 25.203125 44 24.09375 44 
C 11.09375 44 3.296875 32.703125 3.296875 21.296875 
C 3.296875 9.296875 12 -1 23.703125 -1 
C 30.40625 -1 35.203125 1.1875 39.09375 3.78125 
L 38.5 10.375 
C 34.203125 7.078125 29.203125 5.265625 23.796875 5.265625 
C 16 5.265625 10.90625 12.09375 10.90625 21.390625 
C 10.90625 28.609375 14.203125 37.71875 24.203125 37.71875 
C 29.703125 37.71875 32.796875 36.609375 37.40625 33.515625 
z
" id="CMSS17-99"/>
      <path d="M 39.09375 21.515625 
C 39.09375 24.84375 38.90625 31.296875 35.703125 36.640625 
C 32.203125 42.390625 26.5 44 22.203125 44 
C 11.796875 44 3 34.1875 3 21.484375 
C 3 9.09375 12.09375 -1 23.59375 -1 
C 28.09375 -1 33.59375 0.296875 38.59375 3.875 
C 38.59375 4.28125 38.40625 6.46875 38.296875 6.5625 
C 38.296875 6.765625 38 9.84375 38 10.25 
C 33.203125 6.359375 27.703125 5.078125 23.703125 5.078125 
C 17.296875 5.078125 10.40625 10.421875 10.09375 21.515625 
z
M 10.90625 27 
C 12.203125 32.5625 16.59375 37.828125 22.203125 37.828125 
C 23.703125 37.828125 30.703125 37.828125 32.5 27 
z
" id="CMSS17-101"/>
      <path d="M 14.796875 69 
L 7.40625 69 
L 7.40625 0 
L 14.796875 0 
z
" id="CMSS17-108"/>
      <path d="M 32.203125 41.046875 
C 26.296875 43.859375 21.703125 43.859375 18.703125 43.859375 
C 11.59375 43.859375 3.09375 41.375 3.09375 31.296875 
C 3.09375 21.234375 14.09375 19.03125 17.09375 18.421875 
C 21.703125 17.53125 26.796875 16.53125 26.796875 11.5625 
C 26.796875 5.265625 19.59375 5.265625 18.296875 5.265625 
C 14.296875 5.265625 8.796875 6.359375 3.796875 9.96875 
L 2.59375 3.28125 
C 8.296875 0 13.796875 -1 18.40625 -1 
C 30.703125 -1 33.796875 6.5 33.796875 12.203125 
C 33.796875 17.09375 31 20.390625 29.09375 21.890625 
C 25.796875 24.5 24.59375 24.796875 16.40625 26.5 
C 15 26.703125 10.09375 27.796875 10.09375 32.28125 
C 10.09375 38 16.40625 38 17.796875 38 
C 24.296875 38 28.296875 35.984375 31 34.5 
z
" id="CMSS17-115"/>
      <path d="M 62.703125 43 
L 55.09375 43 
L 49.796875 25.015625 
C 48.703125 21.21875 45.59375 10.703125 45.203125 5.796875 
L 45.09375 5.796875 
C 44.90625 8.8125 43.203125 16 40.40625 25.515625 
L 35.296875 43 
L 28.40625 43 
L 23.40625 25.90625 
C 20.90625 17.203125 19 9.796875 18.796875 5.796875 
L 18.703125 5.796875 
C 18.296875 11.703125 14.203125 25.515625 13.59375 27.703125 
L 9.09375 43 
L 1.296875 43 
L 14.296875 0 
L 21.90625 0 
C 27.09375 17.125 31.09375 30.359375 31.40625 37.03125 
C 31.59375 33.75 33.296875 26.671875 34.296875 23.1875 
L 40.90625 0 
L 49.703125 0 
z
" id="CMSS17-119"/>
      <path d="M 15.296875 65.359375 
L 6.90625 65.359375 
L 6.90625 57 
L 15.296875 57 
z
M 14.796875 42.796875 
L 7.40625 42.796875 
L 7.40625 0 
L 14.796875 0 
z
" id="CMSS17-105"/>
      <path d="M 16.703125 37 
L 29.703125 37 
L 29.703125 42.765625 
L 16.703125 42.765625 
L 16.703125 55 
L 9.59375 55 
L 9.59375 42.765625 
L 1.703125 42.765625 
L 1.703125 37 
L 9.40625 37 
L 9.40625 11.703125 
C 9.40625 6 10.703125 -1 17.296875 -1 
C 22.296875 -1 26.90625 0.390625 31.296875 2.6875 
L 29.703125 8.5625 
C 27.296875 6.46875 24.40625 5.265625 21.296875 5.265625 
C 16.90625 5.265625 16.703125 10.875 16.703125 13.375 
z
" id="CMSS17-116"/>
      <path d="M 40.90625 29.546875 
C 40.90625 35.8125 39.40625 44.0625 28.09375 44.0625 
C 21.796875 44.0625 17.703125 40.984375 14.796875 37.609375 
L 14.796875 69.5 
L 7.40625 69.5 
L 7.40625 0.5 
L 15 0.5 
L 15 24.578125 
C 15 30.828125 17.40625 38 24.203125 38 
C 33 38 33.296875 32.125 33.296875 28.734375 
L 33.296875 0.5 
L 40.90625 0.5 
z
" id="CMSS17-104"/>
      <path d="M 37.59375 27.984375 
C 37.59375 37.375 30.90625 43.875 21.90625 43.875 
C 17.5 43.875 12.703125 43.078125 7.203125 39.890625 
L 7.796875 33.359375 
C 10.296875 35.125 14.59375 38 21.796875 38 
C 26.90625 38 30 34.0625 30 27.84375 
L 30 24 
C 14 24 4 19.34375 4 11.34375 
C 4 7.203125 6.5 -1 14.796875 -1 
C 16.296875 -1 24.40625 -1 30.203125 3.390625 
L 30.203125 -0.296875 
L 37.59375 -0.296875 
z
M 30 12.75 
C 30 10.953125 30 8.5625 27 6.78125 
C 24.40625 5.078125 21.09375 5.078125 19.703125 5.078125 
C 14.703125 5.078125 11.296875 7.984375 11.296875 11.625 
C 11.296875 18.921875 26.90625 18.921875 30 18.921875 
z
" id="CMSS17-97"/>
      <path d="M 14.90625 21.296875 
C 14.90625 30.703125 21.796875 37 30.59375 37 
L 30.59375 43.578125 
C 24.203125 43.578125 18.203125 40.390625 14.59375 35.203125 
L 14.59375 43.09375 
L 7.5 43.09375 
L 7.5 0 
L 14.90625 0 
z
" id="CMSS17-114"/>
      <path d="M 14.90625 69 
L 7.5 69 
L 7.5 -0.203125 
L 15.09375 -0.203125 
L 15.09375 4.28125 
C 18.90625 0.59375 23.5 -1 27.59375 -1 
C 37.203125 -1 45 8.578125 45 21.125 
C 45 32.59375 39 43.0625 30.09375 43.0625 
C 23.796875 43.0625 18.203125 40.484375 14.90625 37.796875 
z
M 15.09375 31.96875 
C 17.296875 34.71875 20.40625 37 24.796875 37 
C 30.703125 37 37.40625 32.765625 37.40625 21.125 
C 37.40625 8.71875 29.40625 5.078125 23.90625 5.078125 
C 21.90625 5.078125 19.796875 5.5625 17.796875 7.25 
C 15.09375 9.609375 15.09375 11.078125 15.09375 12.453125 
z
" id="CMSS17-98"/>
      <path d="M 40.90625 42.796875 
L 33.296875 42.796875 
L 33.296875 15.1875 
C 33.296875 7.78125 27.90625 4.78125 22.203125 4.78125 
C 15.59375 4.78125 15 6.984375 15 11.078125 
L 15 42.796875 
L 7.40625 42.796875 
L 7.40625 10.59375 
C 7.40625 2.796875 10.09375 -1 17 -1 
C 20.40625 -1 28.09375 -0.203125 33.5 4.78125 
L 33.5 0 
L 40.90625 0 
z
" id="CMSS17-117"/>
      <path d="M 67 29.328125 
C 67 36.0625 65.296875 44 54.09375 44 
C 46.59375 44 42.09375 39.3125 40.09375 36.421875 
C 38.296875 41.71875 34.09375 44 28.09375 44 
C 21.296875 44 17 40.125 14.703125 37.328125 
L 14.703125 43.09375 
L 7.40625 43.09375 
L 7.40625 0 
L 15 0 
L 15 24.359375 
C 15 30.296875 17.203125 37.9375 24.296875 37.9375 
C 33.40625 37.9375 33.40625 31.5 33.40625 28.578125 
L 33.40625 0 
L 41 0 
L 41 24.359375 
C 41 30.296875 43.203125 37.9375 50.296875 37.9375 
C 59.40625 37.9375 59.40625 31.5 59.40625 28.578125 
L 59.40625 0 
L 67 0 
z
" id="CMSS17-109"/>
      <path d="M 15.09375 5.203125 
C 18.40625 2.015625 22.90625 -0.078125 27.703125 -0.078125 
C 37 -0.078125 45 9.421875 45 22.0625 
C 45 33.734375 39 44 30.40625 44 
C 25.40625 44 19.40625 42.21875 14.90625 38.625 
L 14.90625 43.203125 
L 7.5 43.203125 
L 7.5 -19 
L 15.09375 -19 
z
M 15.09375 32.8125 
C 15.90625 34 19.296875 37.734375 24.796875 37.734375 
C 31.796875 37.734375 37.40625 30.625 37.40625 22.0625 
C 37.40625 12.296875 30.59375 6 23.90625 6 
C 21.90625 6 19.796875 6.484375 17.796875 8.171875 
C 15.09375 10.53125 15.09375 12 15.09375 13.390625 
z
" id="CMSS17-112"/>
      <path d="M 40.90625 29.328125 
C 40.90625 35.671875 39.40625 44 28.09375 44 
C 21.703125 44 17.5 40.71875 14.703125 37.328125 
L 14.703125 43.09375 
L 7.40625 43.09375 
L 7.40625 0 
L 15 0 
L 15 24.359375 
C 15 30.6875 17.40625 37.9375 24.203125 37.9375 
C 33 37.9375 33.296875 32 33.296875 28.578125 
L 33.296875 0 
L 40.90625 0 
z
" id="CMSS17-110"/>
      <path d="M 40.796875 69 
L 33.40625 69 
L 33.40625 38.09375 
C 30.296875 40.671875 25.203125 43.0625 19.59375 43.0625 
C 10.5 43.0625 3.296875 33.296875 3.296875 21.046875 
C 3.296875 8.78125 10.40625 -1 19.296875 -1 
C 26.203125 -1 30.796875 2.6875 33.203125 4.78125 
L 33.203125 -0.203125 
L 40.796875 -0.203125 
z
M 33.203125 13.0625 
C 33.203125 11.671875 33.203125 10.203125 30.09375 7.53125 
C 28.09375 5.859375 25.703125 5.078125 23.40625 5.078125 
C 18 5.078125 10.90625 9 10.90625 20.9375 
C 10.90625 33.34375 18.90625 37 24.40625 37 
C 28.09375 37 31.09375 35.21875 33.203125 32.265625 
z
" id="CMSS17-100"/>
     </defs>
     <g transform="translate(89.48 220.125121)scale(0.06 -0.06)">
      <use transform="scale(0.996264)" xlink:href="#CMSS17-37"/>
      <use transform="translate(109.301849 0)scale(0.996264)" xlink:href="#CMSS17-99"/>
      <use transform="translate(150.940671 0)scale(0.996264)" xlink:href="#CMSS17-101"/>
      <use transform="translate(192.579493 0)scale(0.996264)" xlink:href="#CMSS17-108"/>
      <use transform="translate(214.760216 0)scale(0.996264)" xlink:href="#CMSS17-108"/>
      <use transform="translate(236.940939 0)scale(0.996264)" xlink:href="#CMSS17-115"/>
      <use transform="translate(304.083594 0)scale(0.996264)" xlink:href="#CMSS17-119"/>
      <use transform="translate(367.903139 0)scale(0.996264)" xlink:href="#CMSS17-105"/>
      <use transform="translate(390.083862 0)scale(0.996264)" xlink:href="#CMSS17-116"/>
      <use transform="translate(423.915429 0)scale(0.996264)" xlink:href="#CMSS17-104"/>
      <use transform="translate(503.349485 0)scale(0.996264)" xlink:href="#CMSS17-97"/>
      <use transform="translate(548.271405 0)scale(0.996264)" xlink:href="#CMSS17-116"/>
      <use transform="translate(582.102972 0)scale(0.996264)" xlink:href="#CMSS17-116"/>
      <use transform="translate(615.934539 0)scale(0.996264)" xlink:href="#CMSS17-114"/>
      <use transform="translate(647.844311 0)scale(0.996264)" xlink:href="#CMSS17-105"/>
      <use transform="translate(670.025034 0)scale(0.996264)" xlink:href="#CMSS17-98"/>
      <use transform="translate(718.229977 0)scale(0.996264)" xlink:href="#CMSS17-117"/>
      <use transform="translate(766.434921 0)scale(0.996264)" xlink:href="#CMSS17-116"/>
      <use transform="translate(800.266487 0)scale(0.996264)" xlink:href="#CMSS17-97"/>
      <use transform="translate(845.188408 0)scale(0.996264)" xlink:href="#CMSS17-98"/>
      <use transform="translate(893.393351 0)scale(0.996264)" xlink:href="#CMSS17-108"/>
      <use transform="translate(915.574074 0)scale(0.996264)" xlink:href="#CMSS17-101"/>
      <use transform="translate(988.442009 0)scale(0.996264)" xlink:href="#CMSS17-116"/>
      <use transform="translate(1022.273576 0)scale(0.996264)" xlink:href="#CMSS17-101"/>
      <use transform="translate(1063.912398 0)scale(0.996264)" xlink:href="#CMSS17-109"/>
      <use transform="translate(1138.141652 0)scale(0.996264)" xlink:href="#CMSS17-112"/>
      <use transform="translate(1188.949034 0)scale(0.996264)" xlink:href="#CMSS17-101"/>
      <use transform="translate(1230.587856 0)scale(0.996264)" xlink:href="#CMSS17-114"/>
      <use transform="translate(1262.497629 0)scale(0.996264)" xlink:href="#CMSS17-97"/>
      <use transform="translate(1307.419549 0)scale(0.996264)" xlink:href="#CMSS17-116"/>
      <use transform="translate(1341.251116 0)scale(0.996264)" xlink:href="#CMSS17-117"/>
      <use transform="translate(1389.456059 0)scale(0.996264)" xlink:href="#CMSS17-114"/>
      <use transform="translate(1421.365832 0)scale(0.996264)" xlink:href="#CMSS17-101"/>
      <use transform="translate(1494.233766 0)scale(0.996264)" xlink:href="#CMSS17-116"/>
      <use transform="translate(1528.065333 0)scale(0.996264)" xlink:href="#CMSS17-114"/>
      <use transform="translate(1559.975106 0)scale(0.996264)" xlink:href="#CMSS17-101"/>
      <use transform="translate(1601.613928 0)scale(0.996264)" xlink:href="#CMSS17-110"/>
      <use transform="translate(1649.818871 0)scale(0.996264)" xlink:href="#CMSS17-100"/>
     </g>
    </g>
    <g id="patch_3">
     <path d="M 98.007226 227.287418 
L 108.007226 227.287418 
L 108.007226 223.787418 
L 98.007226 223.787418 
z
" style="fill:#dadaeb;stroke:#000000;stroke-linejoin:miter;stroke-width:0.5;"/>
    </g>
    <g id="text_2">
     <!-- 0\% -->
     <defs>
      <path d="M 43.09375 31.9375 
C 43.09375 37.578125 43 48.078125 38.90625 56.1875 
C 34.796875 64 28.203125 66.078125 23.5 66.078125 
C 16.703125 66.078125 10.90625 62.109375 7.90625 55.78125 
C 4.703125 49.15625 3.796875 42.328125 3.796875 31.9375 
C 3.796875 24.828125 4.09375 16.109375 7.703125 8.484375 
C 11.796875 0.078125 18.703125 -2 23.40625 -2 
C 29.59375 -2 35.59375 1.265625 39 8.09375 
C 42.5 15.21875 43.09375 23.03125 43.09375 31.9375 
z
M 23.40625 4.078125 
C 15.796875 4.078125 13.5 12.671875 12.796875 15.546875 
C 11.59375 20.46875 11.40625 25.21875 11.40625 33.03125 
C 11.40625 39.15625 11.40625 46.0625 13.296875 51.515625 
C 15.59375 57.828125 19.59375 60 23.40625 60 
C 30.796875 60 33.203125 52.6875 34 50.125 
C 35.5 44.890625 35.5 38.765625 35.5 33.03125 
C 35.5 23.84375 35.5 4.078125 23.40625 4.078125 
z
" id="CMSS17-48"/>
     </defs>
     <g transform="translate(112.007226 227.287418)scale(0.05 -0.05)">
      <use transform="scale(0.996264)" xlink:href="#CMSS17-48"/>
      <use transform="translate(46.843624 0)scale(0.996264)" xlink:href="#CMSS17-37"/>
     </g>
    </g>
    <g id="patch_4">
     <path d="M 129.064182 227.287418 
L 139.064182 227.287418 
L 139.064182 223.787418 
L 129.064182 223.787418 
z
" style="fill:#9e9ac8;stroke:#000000;stroke-linejoin:miter;stroke-width:0.5;"/>
    </g>
    <g id="text_3">
     <!-- 0-50\% -->
     <defs>
      <path d="M 26 19 
L 26 24.765625 
L 1 24.765625 
L 1 19 
z
" id="CMSS17-45"/>
      <path d="M 14.59375 58.625 
L 39.09375 58.625 
L 39.09375 65 
L 7.296875 65 
L 7.296875 27.828125 
L 14 27.828125 
C 15.796875 31.96875 19.5 35 24.296875 35 
C 28.796875 35 33.796875 31.078125 33.796875 19.78125 
C 33.796875 7.703125 26.703125 4.171875 21.5 4.171875 
C 15.09375 4.171875 9.203125 8 6.59375 13.296875 
L 3.40625 7.796875 
C 8 0.765625 15.5 -2 21.5 -2 
C 33.09375 -2 42.203125 7.765625 42.203125 19.578125 
C 42.203125 31.71875 34.09375 41.078125 24.40625 41.078125 
C 20.90625 41.078125 17.5 39.890625 14.59375 37.484375 
z
" id="CMSS17-53"/>
     </defs>
     <g transform="translate(143.064182 227.287418)scale(0.05 -0.05)">
      <use transform="scale(0.996264)" xlink:href="#CMSS17-48"/>
      <use transform="translate(46.843624 0)scale(0.996264)" xlink:href="#CMSS17-45"/>
      <use transform="translate(78.072736 0)scale(0.996264)" xlink:href="#CMSS17-53"/>
      <use transform="translate(124.91636 0)scale(0.996264)" xlink:href="#CMSS17-48"/>
      <use transform="translate(171.759983 0)scale(0.996264)" xlink:href="#CMSS17-37"/>
     </g>
    </g>
    <g id="patch_5">
     <path d="M 167.178095 227.287418 
L 177.178095 227.287418 
L 177.178095 223.787418 
L 167.178095 223.787418 
z
" style="fill:#6950a3;stroke:#000000;stroke-linejoin:miter;stroke-width:0.5;"/>
    </g>
    <g id="text_4">
     <!-- \textgreater50\% -->
     <defs>
      <path d="M 65.90625 22.640625 
C 67.796875 23.546875 67.90625 24.140625 67.90625 24.84375 
C 67.90625 25.4375 67.703125 26.140625 65.90625 26.953125 
L 11.796875 51.90625 
C 10.5 52.5 10.296875 52.5 10.09375 52.5 
C 8.90625 52.5 8.203125 51.5 8.203125 50.703125 
C 8.203125 49.5 9 49.09375 10.296875 48.5 
L 61.703125 24.84375 
L 10.203125 1.015625 
C 8.203125 0.09375 8.203125 -0.609375 8.203125 -1.203125 
C 8.203125 -2 8.90625 -3 10.09375 -3 
C 10.296875 -3 10.40625 -2.890625 11.796875 -2.296875 
z
" id="CMMI12-62"/>
     </defs>
     <g transform="translate(181.178095 227.287418)scale(0.05 -0.05)">
      <use transform="scale(0.996264)" xlink:href="#CMMI12-62"/>
      <use transform="translate(75.872096 0)scale(0.996264)" xlink:href="#CMSS17-53"/>
      <use transform="translate(122.715719 0)scale(0.996264)" xlink:href="#CMSS17-48"/>
      <use transform="translate(169.559343 0)scale(0.996264)" xlink:href="#CMSS17-37"/>
     </g>
    </g>
   </g>
   <g id="legend_2">
    <g id="patch_6">
     <path d="M 255.88 230.256 
L 373.817397 230.256 
Q 374.817397 230.256 374.817397 229.256 
L 374.817397 214.641933 
Q 374.817397 213.641933 373.817397 213.641933 
L 255.88 213.641933 
Q 254.88 213.641933 254.88 214.641933 
L 254.88 229.256 
Q 254.88 230.256 255.88 230.256 
z
" style="fill:#ffffff;opacity:0.8;stroke:#cccccc;stroke-linejoin:miter;"/>
    </g>
    <g id="text_5">
     <!-- \% cells with attributable precipitation trend -->
     <defs>
      <path d="M 44.203125 21.1875 
C 44.203125 34 34.703125 44 23.5 44 
C 12 44 2.703125 33.703125 2.703125 21.1875 
C 2.703125 8.5 12.296875 -1 23.40625 -1 
C 34.796875 -1 44.203125 8.796875 44.203125 21.1875 
z
M 23.5 5.265625 
C 16.40625 5.265625 10.296875 11.078125 10.296875 22 
C 10.296875 33.609375 17.40625 37.921875 23.40625 37.921875 
C 29.90625 37.921875 36.59375 33.21875 36.59375 22 
C 36.59375 10.671875 30.09375 5.265625 23.5 5.265625 
z
" id="CMSS17-111"/>
     </defs>
     <g transform="translate(256.88 220.125121)scale(0.06 -0.06)">
      <use transform="scale(0.996264)" xlink:href="#CMSS17-37"/>
      <use transform="translate(109.301849 0)scale(0.996264)" xlink:href="#CMSS17-99"/>
      <use transform="translate(150.940671 0)scale(0.996264)" xlink:href="#CMSS17-101"/>
      <use transform="translate(192.579493 0)scale(0.996264)" xlink:href="#CMSS17-108"/>
      <use transform="translate(214.760216 0)scale(0.996264)" xlink:href="#CMSS17-108"/>
      <use transform="translate(236.940939 0)scale(0.996264)" xlink:href="#CMSS17-115"/>
      <use transform="translate(304.083594 0)scale(0.996264)" xlink:href="#CMSS17-119"/>
      <use transform="translate(367.903139 0)scale(0.996264)" xlink:href="#CMSS17-105"/>
      <use transform="translate(390.083862 0)scale(0.996264)" xlink:href="#CMSS17-116"/>
      <use transform="translate(423.915429 0)scale(0.996264)" xlink:href="#CMSS17-104"/>
      <use transform="translate(503.349485 0)scale(0.996264)" xlink:href="#CMSS17-97"/>
      <use transform="translate(548.271405 0)scale(0.996264)" xlink:href="#CMSS17-116"/>
      <use transform="translate(582.102972 0)scale(0.996264)" xlink:href="#CMSS17-116"/>
      <use transform="translate(615.934539 0)scale(0.996264)" xlink:href="#CMSS17-114"/>
      <use transform="translate(647.844311 0)scale(0.996264)" xlink:href="#CMSS17-105"/>
      <use transform="translate(670.025034 0)scale(0.996264)" xlink:href="#CMSS17-98"/>
      <use transform="translate(718.229977 0)scale(0.996264)" xlink:href="#CMSS17-117"/>
      <use transform="translate(766.434921 0)scale(0.996264)" xlink:href="#CMSS17-116"/>
      <use transform="translate(800.266487 0)scale(0.996264)" xlink:href="#CMSS17-97"/>
      <use transform="translate(845.188408 0)scale(0.996264)" xlink:href="#CMSS17-98"/>
      <use transform="translate(893.393351 0)scale(0.996264)" xlink:href="#CMSS17-108"/>
      <use transform="translate(915.574074 0)scale(0.996264)" xlink:href="#CMSS17-101"/>
      <use transform="translate(988.442009 0)scale(0.996264)" xlink:href="#CMSS17-112"/>
      <use transform="translate(1034.044498 0)scale(0.996264)" xlink:href="#CMSS17-114"/>
      <use transform="translate(1065.954271 0)scale(0.996264)" xlink:href="#CMSS17-101"/>
      <use transform="translate(1107.593093 0)scale(0.996264)" xlink:href="#CMSS17-99"/>
      <use transform="translate(1149.231915 0)scale(0.996264)" xlink:href="#CMSS17-105"/>
      <use transform="translate(1171.412638 0)scale(0.996264)" xlink:href="#CMSS17-112"/>
      <use transform="translate(1219.617581 0)scale(0.996264)" xlink:href="#CMSS17-105"/>
      <use transform="translate(1241.798304 0)scale(0.996264)" xlink:href="#CMSS17-116"/>
      <use transform="translate(1275.629871 0)scale(0.996264)" xlink:href="#CMSS17-97"/>
      <use transform="translate(1320.551791 0)scale(0.996264)" xlink:href="#CMSS17-116"/>
      <use transform="translate(1354.383358 0)scale(0.996264)" xlink:href="#CMSS17-105"/>
      <use transform="translate(1376.564081 0)scale(0.996264)" xlink:href="#CMSS17-111"/>
      <use transform="translate(1423.407705 0)scale(0.996264)" xlink:href="#CMSS17-110"/>
      <use transform="translate(1502.84176 0)scale(0.996264)" xlink:href="#CMSS17-116"/>
      <use transform="translate(1536.673327 0)scale(0.996264)" xlink:href="#CMSS17-114"/>
      <use transform="translate(1568.5831 0)scale(0.996264)" xlink:href="#CMSS17-101"/>
      <use transform="translate(1610.221922 0)scale(0.996264)" xlink:href="#CMSS17-110"/>
      <use transform="translate(1658.426865 0)scale(0.996264)" xlink:href="#CMSS17-100"/>
     </g>
    </g>
    <g id="patch_7">
     <path d="M 265.71336 227.287418 
L 275.71336 227.287418 
L 275.71336 223.787418 
L 265.71336 223.787418 
z
" style="fill:#c7e9c0;stroke:#000000;stroke-linejoin:miter;stroke-width:0.5;"/>
    </g>
    <g id="text_6">
     <!-- 0\% -->
     <g transform="translate(279.71336 227.287418)scale(0.05 -0.05)">
      <use transform="scale(0.996264)" xlink:href="#CMSS17-48"/>
      <use transform="translate(46.843624 0)scale(0.996264)" xlink:href="#CMSS17-37"/>
     </g>
    </g>
    <g id="patch_8">
     <path d="M 296.770316 227.287418 
L 306.770316 227.287418 
L 306.770316 223.787418 
L 296.770316 223.787418 
z
" style="fill:#73c476;stroke:#000000;stroke-linejoin:miter;stroke-width:0.5;"/>
    </g>
    <g id="text_7">
     <!-- 0-50\% -->
     <g transform="translate(310.770316 227.287418)scale(0.05 -0.05)">
      <use transform="scale(0.996264)" xlink:href="#CMSS17-48"/>
      <use transform="translate(46.843624 0)scale(0.996264)" xlink:href="#CMSS17-45"/>
      <use transform="translate(78.072736 0)scale(0.996264)" xlink:href="#CMSS17-53"/>
      <use transform="translate(124.91636 0)scale(0.996264)" xlink:href="#CMSS17-48"/>
      <use transform="translate(171.759983 0)scale(0.996264)" xlink:href="#CMSS17-37"/>
     </g>
    </g>
    <g id="patch_9">
     <path d="M 334.884228 227.287418 
L 344.884228 227.287418 
L 344.884228 223.787418 
L 334.884228 223.787418 
z
" style="fill:#228a44;stroke:#000000;stroke-linejoin:miter;stroke-width:0.5;"/>
    </g>
    <g id="text_8">
     <!-- \textgreater50\% -->
     <g transform="translate(348.884228 227.287418)scale(0.05 -0.05)">
      <use transform="scale(0.996264)" xlink:href="#CMMI12-62"/>
      <use transform="translate(75.872096 0)scale(0.996264)" xlink:href="#CMSS17-53"/>
      <use transform="translate(122.715719 0)scale(0.996264)" xlink:href="#CMSS17-48"/>
      <use transform="translate(169.559343 0)scale(0.996264)" xlink:href="#CMSS17-37"/>
     </g>
    </g>
   </g>
  </g>
 </g>
</svg>
